<svg width="70" height="70" viewBox="0 0 70 70" fill="none" xmlns="http://www.w3.org/2000/svg">
<g clip-path="url(#clip0_7_123)">
<path d="M21.3891 0C17.2635 0 13.3068 1.63888 10.3896 4.55612C7.47238 7.47335 5.8335 11.43 5.8335 15.5556V31.1111H9.72239V15.5556C9.72239 12.4614 10.9515 9.4939 13.1395 7.30598C15.3274 5.11805 18.2949 3.88889 21.3891 3.88889C24.4832 3.88889 27.4507 5.11805 29.6386 7.30598C31.8266 9.4939 33.0557 12.4614 33.0557 15.5556V31.1111H36.9446V15.5556C36.9446 11.43 35.3057 7.47335 32.3885 4.55612C29.4713 1.63888 25.5146 0 21.3891 0V0Z" fill="#F4900C"/>
<path d="M1.94434 15.5555L5.83322 19.4444L9.72211 15.5555L13.611 19.4444L17.4999 15.5555L21.3888 19.4444L25.2777 15.5555L29.1666 19.4444L33.0554 15.5555L36.9443 19.4444L40.8332 15.5555V60.2778H1.94434V15.5555Z" fill="#DD2E44"/>
<path d="M48.6112 9.72223C44.4856 9.72223 40.529 11.3611 37.6118 14.2783C34.6945 17.1956 33.0557 21.1522 33.0557 25.2778V40.8333H36.9446V25.2778C36.9446 22.1836 38.1737 19.2161 40.3616 17.0282C42.5496 14.8403 45.517 13.6111 48.6112 13.6111C51.7054 13.6111 54.6729 14.8403 56.8608 17.0282C59.0487 19.2161 60.2779 22.1836 60.2779 25.2778V40.8333H64.1668V25.2778C64.1668 21.1522 62.5279 17.1956 59.6107 14.2783C56.6934 11.3611 52.7368 9.72223 48.6112 9.72223Z" fill="#FFCC4D"/>
<path d="M29.1665 25.2778L33.0554 29.1667L36.9443 25.2778L40.8332 29.1667L44.7221 25.2778L48.611 29.1667L52.4998 25.2778L56.3887 29.1667L60.2776 25.2778L64.1665 29.1667L68.0554 25.2778V70H29.1665V25.2778Z" fill="#744EAA"/>
</g>
<defs>
<clipPath id="clip0_7_123">
<rect width="70" height="70" fill="white"/>
</clipPath>
</defs>
</svg>
