<svg width="80" height="64" viewBox="0 0 80 64" fill="none" xmlns="http://www.w3.org/2000/svg">
<path d="M72.4816 43.496C71.3778 43.496 70.3081 43.7324 69.3628 44.1532C68.9487 43.9063 68.7384 43.6669 68.1134 43.4335V16.142L39.9219 0.0654297L16.2463 13.7599C15.8444 13.5293 15.44 13.2886 15.0253 13.0424C14.9913 9.01042 11.6369 5.73999 7.51437 5.73999C3.37031 5.73999 0 9.0438 0 13.1046C0 17.1651 3.37188 20.4689 7.51625 20.4689C8.62 20.4689 9.71312 20.2325 10.6581 19.8117C11.0497 20.0451 11.5519 20.2717 11.8644 20.4928V48.0311L40.0156 63.9984L63.9209 50.2962C64.2722 50.499 64.6178 50.7081 64.9788 50.9228C65.0131 54.9551 68.3647 58.2252 72.4872 58.2252C76.6312 58.2252 80 54.9211 80 50.8606C80 46.8001 76.6256 43.496 72.4816 43.496Z" fill="#B8C6C9"/>
<path d="M39.9612 59.4279L64.07 45.6051V18.4587L39.96 4.70361L15.8643 18.6513V45.765L39.9612 59.4279ZM75.9165 50.9214C75.9165 52.7734 74.3859 54.2745 72.4987 54.2745C70.6109 54.2745 69.0809 52.7734 69.0809 50.9214C69.0809 49.0697 70.6109 47.5683 72.4987 47.5683C74.3862 47.5683 75.9165 49.0697 75.9165 50.9214ZM4.08496 13.1014C4.08496 11.2497 5.61496 9.74828 7.50277 9.74828C9.39027 9.74828 10.9206 11.2497 10.9206 13.1014C10.9206 14.9531 9.39027 16.4545 7.50277 16.4545C5.61527 16.4545 4.08496 14.9531 4.08496 13.1014Z" fill="#759BC5"/>
<path d="M72.5298 52.8996C71.9858 52.8991 71.4643 52.687 71.0796 52.3101C70.695 51.9331 70.4787 51.422 70.4782 50.889C70.4788 50.356 70.6951 49.845 71.0798 49.4682C71.4644 49.0914 71.9859 48.8794 72.5298 48.879C73.0736 48.8795 73.595 49.0915 73.9796 49.4683C74.3642 49.8451 74.5805 50.3561 74.581 50.889C74.5805 51.4219 74.3642 51.9329 73.9796 52.3098C73.5951 52.6867 73.0737 52.8987 72.5298 52.8993V52.8996ZM44.6673 55.1516C46.9001 52 49.5464 47.4832 51.1745 42.0576C54.6326 42.753 57.8601 43.8799 61.3614 45.592L44.6676 55.1516H44.6673ZM27.8173 23.8975C27.2776 26.1032 26.9079 28.4525 26.8242 30.9237C23.681 30.9247 20.6186 30.9247 17.1782 30.9247V20.0793C20.6189 21.8967 24.2401 23.1219 27.817 23.8978L27.8173 23.8975ZM7.51012 15.1111C6.96613 15.1107 6.44457 14.8987 6.05988 14.5218C5.6752 14.1449 5.45882 13.6339 5.45824 13.1008C5.4589 12.5678 5.67531 12.0568 6.05999 11.68C6.44467 11.3032 6.96619 11.0913 7.51012 11.0908C8.05396 11.0913 8.57537 11.3033 8.95993 11.6801C9.34449 12.057 9.56079 12.5679 9.56137 13.1008C9.56087 13.6338 9.34461 14.1448 8.96004 14.5217C8.57547 14.8986 8.05402 15.1106 7.51012 15.1111ZM34.8304 9.24305C32.5873 12.3126 30.0201 16.6177 28.4167 21.8397C25.1835 21.1507 22.1342 20.0731 18.8511 18.482L34.8307 9.24335L34.8304 9.24305ZM40.8882 38.9712C40.8901 38.1472 40.8926 37.3103 40.8951 36.4636C42.6679 36.1154 44.0751 34.7757 44.4964 33.0627C46.6626 33.0645 48.7323 33.0658 50.7626 33.0661C50.6801 35.3566 50.3417 37.5604 49.8282 39.6489C47.0823 39.211 44.1673 39.0046 40.8882 38.9712ZM40.8845 41.1147C43.9679 41.146 46.6945 41.3294 49.2532 41.7195C47.0889 48.709 43.1504 54.1741 40.9301 56.8759C40.8913 51.6223 40.8761 46.3685 40.8845 41.1147ZM28.4217 42.3562C30.0279 47.5987 32.5985 51.8863 34.8435 54.9314L18.4423 45.6431C20.4501 44.7186 23.8923 43.3489 28.4217 42.3562ZM35.4642 33.0636C35.8789 34.7487 37.2482 36.071 38.9807 36.4446C38.9779 37.2992 38.9754 38.1447 38.9735 38.9767C35.8754 39.0262 32.787 39.3305 29.7407 39.8862C29.2095 37.7472 28.862 35.4668 28.7842 33.0673C30.9604 33.0667 33.1642 33.0654 35.4642 33.0636ZM38.972 25.0174C38.9742 25.8635 38.9767 26.7071 38.9795 27.5498C37.2514 27.9225 35.8848 29.2398 35.467 30.9191C33.167 30.921 30.9639 30.9222 28.7876 30.9231C28.8699 28.6769 29.1838 26.4447 29.7245 24.2604C32.5636 24.7451 35.5717 24.976 38.972 25.0174ZM38.9504 8.56201C38.9535 13.2643 38.9567 18.0809 38.9667 22.8732C35.7657 22.8346 32.9479 22.6298 30.3001 22.1949C32.5254 15.0588 36.6357 9.73882 38.9495 7.14605L38.9504 8.56201ZM51.1279 21.7754C49.5048 16.4631 46.9051 12.0477 44.7004 8.95091L61.5054 18.5264C59.4304 19.45 55.847 20.8188 51.1282 21.7754H51.1279ZM40.8654 8.56079L40.8642 7.12186C43.0564 9.7477 47.0182 15.1503 49.2132 22.1285C46.4595 22.5855 43.674 22.8339 40.8814 22.8717C40.8722 18.1014 40.8668 13.3311 40.8651 8.56079H40.8654ZM39.9801 34.4088C38.6229 34.4088 37.5185 33.327 37.5185 31.9967C37.5185 30.6668 38.6229 29.5846 39.9801 29.5846C41.3376 29.5846 42.442 30.6668 42.442 31.9967C42.442 33.327 41.3376 34.4091 39.9801 34.4091V34.4088ZM39.0167 57.022C36.7317 54.4672 32.5848 49.1328 30.3289 41.9734C33.1803 41.4569 36.0705 41.1718 38.9698 41.1212C38.9613 46.4215 38.977 51.7218 39.0167 57.022ZM44.4929 30.9182C44.0676 29.2114 42.6629 27.8768 40.8939 27.5299L40.8867 25.0158C43.8752 24.979 46.8563 24.7125 49.8023 24.2187C50.3317 26.3396 50.6807 28.5836 50.7632 30.9219C48.732 30.9213 46.6601 30.9201 44.4929 30.9182ZM62.5276 30.9152C59.4001 30.9195 55.9004 30.9219 52.5782 30.9219C52.4979 28.4519 52.092 26.0907 51.5498 23.8657C56.6501 22.8291 60.6514 21.3265 62.5279 20.3478V30.9155L62.5276 30.9152ZM17.1782 33.0688C20.6189 33.0688 23.6945 33.0688 26.8361 33.0679C26.9123 35.6086 27.2523 38.0143 27.7995 40.2656C22.9182 41.3358 19.3676 42.8311 17.1782 43.8147V33.0688ZM51.6301 39.9943C52.1545 37.8045 52.4476 35.4864 52.5276 33.0664C55.8492 33.0664 59.4004 33.0639 62.5279 33.0593V43.8772C59.0876 42.0006 55.357 40.7589 51.6301 39.9943ZM72.5298 46.1986C71.2442 46.1986 70.0163 46.7005 69.1557 47.5114C67.8557 46.7121 66.5939 45.9833 65.3429 45.3152V17.6831L39.9129 3.15723L15.9798 17.0119C14.7026 16.3112 13.3929 15.5368 11.9967 14.6785C12.1779 14.1845 12.2892 13.6551 12.2892 13.1008C12.2892 10.5145 10.1454 8.41074 7.50637 8.41074C4.86699 8.41074 2.72168 10.5145 2.72168 13.1008C2.72168 15.6871 4.87012 17.7915 7.50918 17.7915C8.7948 17.7915 9.88949 17.2899 10.7504 16.479C12.0261 17.263 13.4254 17.9795 14.3636 18.6373V46.5103L39.9123 60.9379L64.1639 47.071C65.4637 47.788 66.746 48.535 68.0098 49.3113C67.8254 49.8176 67.7321 50.3514 67.7338 50.889C67.7338 53.4753 69.8857 55.5797 72.5251 55.5797C75.1645 55.5797 77.3139 53.4753 77.3139 50.889C77.3139 48.3027 75.1692 46.1986 72.5295 46.1986H72.5298Z" fill="#343532"/>
</svg>
