<svg width="60" height="60" viewBox="0 0 60 60" fill="none" xmlns="http://www.w3.org/2000/svg">
<path d="M30 52.5C43.8071 52.5 55 41.3071 55 27.5C55 13.6929 43.8071 2.5 30 2.5C16.1929 2.5 5 13.6929 5 27.5C5 41.3071 16.1929 52.5 30 52.5Z" fill="#FFF59D"/>
<path d="M46.2501 27.5C46.2501 17.875 38.0001 10.25 28.1251 11.375C20.6251 12.25 14.6251 18.25 13.8751 25.75C13.2501 31.5 15.6251 36.625 19.6251 39.875C21.3751 41.375 22.5001 43.5 22.5001 45.875V46.25H37.5001V46.125C37.5001 43.875 38.5001 41.625 40.2501 40.125C43.8751 37.125 46.2501 32.625 46.2501 27.5Z" fill="#FBC02D"/>
<path d="M38.25 25.25L34.5 22.75C34.125 22.5 33.5 22.5 33.125 22.75L30 24.75L27 22.75C26.625 22.5 26 22.5 25.625 22.75L21.875 25.25C21.625 25.5 21.375 25.75 21.375 26.125C21.375 26.5 21.375 26.875 21.625 27.125L26.375 33V46.25H28.875V32.5C28.875 32.25 28.75 32 28.625 31.75L24.5 26.625L26.375 25.375L29.375 27.375C29.75 27.625 30.375 27.625 30.75 27.375L33.75 25.375L35.625 26.625L31.5 31.75C31.375 32 31.25 32.25 31.25 32.5V46.25H33.75V33L38.5 27.125C38.75 26.875 38.875 26.5 38.75 26.125C38.625 25.75 38.5 25.375 38.25 25.25Z" fill="#FFF59D"/>
<path d="M30 58.75C32.0711 58.75 33.75 57.0711 33.75 55C33.75 52.9289 32.0711 51.25 30 51.25C27.9289 51.25 26.25 52.9289 26.25 55C26.25 57.0711 27.9289 58.75 30 58.75Z" fill="#5C6BC0"/>
<path d="M32.5 56.25H27.5C24.75 56.25 22.5 54 22.5 51.25V45H37.5V51.25C37.5 54 35.25 56.25 32.5 56.25Z" fill="#9FA8DA"/>
<path d="M37.5 51.25L23 53.25C23.375 54.125 24.125 55 25 55.5L36.75 53.875C37.25 53.125 37.5 52.25 37.5 51.25ZM22.5 48.375V50.875L37.5 48.75V46.25L22.5 48.375Z" fill="#5C6BC0"/>
</svg>
