<svg width="100" height="100" viewBox="0 0 100 100" fill="none" xmlns="http://www.w3.org/2000/svg">
<path d="M57.625 69.5938H42.3672V84.6953C42.3672 88.4844 45.4766 91.5547 49.3047 91.5547H50.6875C54.5156 91.5547 57.625 88.4844 57.625 84.6953V69.5938ZM71.3516 39.3828H28.6484C24.0469 39.3828 20.2812 43.3984 20.2812 48.2969C20.2812 53.2031 24.0469 57.2109 28.6484 57.2109H71.3437C75.9453 57.2109 79.7109 53.1953 79.7109 48.2969C79.7187 43.3984 75.9531 39.3828 71.3516 39.3828Z" fill="#E59600"/>
<path d="M50 8.63281C36.4063 8.63281 23.8125 23.1719 23.8125 44.0938C23.8125 64.9062 36.7891 75.1953 50 75.1953C63.2109 75.1953 76.1875 64.9062 76.1875 44.0938C76.1875 23.1719 63.5938 8.63281 50 8.63281Z" fill="#FFCA28"/>
<path d="M37.1562 49.9141C39.2834 49.9141 41.0078 48.1302 41.0078 45.9297C41.0078 43.7292 39.2834 41.9453 37.1562 41.9453C35.0291 41.9453 33.3047 43.7292 33.3047 45.9297C33.3047 48.1302 35.0291 49.9141 37.1562 49.9141Z" fill="#404040"/>
<path d="M62.8438 49.9141C64.9709 49.9141 66.6953 48.1302 66.6953 45.9297C66.6953 43.7292 64.9709 41.9453 62.8438 41.9453C60.7166 41.9453 58.9922 43.7292 58.9922 45.9297C58.9922 48.1302 60.7166 49.9141 62.8438 49.9141Z" fill="#404040"/>
<path d="M53.0156 53.1563C52.9297 53.125 52.8516 53.1016 52.7656 53.0938H47.2422C47.1563 53.1016 47.0703 53.125 46.9922 53.1563C46.4922 53.3594 46.2188 53.875 46.4531 54.4297C46.6875 54.9844 47.7891 56.5312 50.0078 56.5312C52.2266 56.5312 53.3281 54.9766 53.5625 54.4297C53.7891 53.875 53.5156 53.3594 53.0156 53.1563Z" fill="#E59600"/>
<path d="M56.5782 59.4688C54.086 60.9454 45.9297 60.9454 43.4454 59.4688C42.0157 58.6172 40.5547 59.9219 41.1485 61.2188C41.7344 62.4922 46.1876 65.4532 50.0313 65.4532C53.8751 65.4532 58.2735 62.4922 58.8594 61.2188C59.4454 59.9219 58.0079 58.6172 56.5782 59.4688Z" fill="#795548"/>
<path d="M50.0154 3.92969H49.9841C14.4841 4.11719 21.7576 43.1016 21.7576 43.1016C21.7576 43.1016 23.3513 47.2812 24.0779 49.125C24.1794 49.3906 24.5701 49.3594 24.6326 49.0859C25.3904 45.6953 28.1169 33.6719 29.4919 30.0156C29.8848 28.9739 30.6313 28.1034 31.601 27.5564C32.5708 27.0095 33.7019 26.8208 34.7966 27.0234C38.281 27.6562 43.8201 28.4375 49.9373 28.4375H50.0623C56.1716 28.4375 61.7185 27.6562 65.1951 27.0234C67.4607 26.6094 69.6951 27.8672 70.4998 30.0156C71.8669 33.6562 74.5779 45.6094 75.3435 49.0469C75.406 49.3281 75.7966 49.3516 75.8982 49.0859L78.2263 43.0938C78.2419 43.1016 85.5076 4.11719 50.0154 3.92969Z" fill="#543930"/>
<path d="M78.2423 43.1016C78.2423 43.1016 85.5158 4.11719 50.0158 3.92969H49.9845C49.4298 3.92969 48.8908 3.94531 48.3595 3.96875C47.3048 4.01562 46.2814 4.09375 45.297 4.21094H45.2658C45.1954 4.21875 45.1329 4.23437 45.0626 4.24219C15.1798 8 21.7501 43.1016 21.7501 43.1016L24.0783 49.1016C24.1798 49.3672 24.5626 49.3438 24.6251 49.0625C25.3908 45.6328 28.1095 33.6641 29.4845 30.0234C29.8782 28.9806 30.6261 28.1095 31.5973 27.5625C32.5685 27.0155 33.7011 26.8274 34.797 27.0312C38.2814 27.6562 43.8204 28.4375 49.9376 28.4375H50.0626C56.172 28.4375 61.7189 27.6562 65.1954 27.0234C67.4611 26.6094 69.6954 27.8672 70.5001 30.0156C71.8751 33.6719 74.6017 45.7188 75.3517 49.0938C75.4142 49.375 75.797 49.3984 75.8986 49.1328C76.6329 47.2969 78.2423 43.1016 78.2423 43.1016Z" fill="url(#paint0_radial_7_323)"/>
<path d="M91.0156 42.4062C90.0469 42.4062 89.2578 43.1562 89.2578 44.0781V51.2656C89.2578 52.1875 90.0469 52.9375 91.0156 52.9375C91.9844 52.9375 92.7734 52.1875 92.7734 51.2656V44.0781C92.7734 43.1562 91.9844 42.4062 91.0156 42.4062ZM87.5 42.4062C86.5312 42.4062 85.7422 43.1562 85.7422 44.0781V51.2656C85.7422 52.1875 86.5312 52.9375 87.5 52.9375C88.4688 52.9375 89.2578 52.1875 89.2578 51.2656V44.0781C89.2578 43.1562 88.4688 42.4062 87.5 42.4062Z" fill="#E8AD00"/>
<path d="M89.2578 42.4062C88.2891 42.4062 87.5 43.1562 87.5 44.0781V52.8203C87.5 53.7422 88.2891 54.4922 89.2578 54.4922C90.2266 54.4922 91.0156 53.7422 91.0156 52.8203V44.0781C91.0156 43.1562 90.2266 42.4062 89.2578 42.4062Z" fill="#FFCA28"/>
<path d="M89.2578 43.5C90.4487 43.5 91.4141 42.5801 91.4141 41.4453C91.4141 40.3105 90.4487 39.3906 89.2578 39.3906C88.0669 39.3906 87.1016 40.3105 87.1016 41.4453C87.1016 42.5801 88.0669 43.5 89.2578 43.5Z" fill="#FFCA28"/>
<path d="M89.2578 41.4219C88.8281 41.4219 88.4766 41.0703 88.4766 40.6406V10.9531C88.4766 10.5234 88.8281 10.1719 89.2578 10.1719C89.6875 10.1719 90.0391 10.5234 90.0391 10.9531V40.6406C90.0391 41.0781 89.6875 41.4219 89.2578 41.4219Z" fill="#504F4F"/>
<path d="M90.625 10.1406C66.5391 4.08594 50 3.89062 50 3.89062C50 3.89062 33.4609 4.08594 9.375 10.1406V10.7422C9.375 11.7812 10.0547 12.6953 11.0469 12.9844C13.9531 13.8438 21.3047 15.7422 25.25 16.5312C25.1875 16.5937 24.3906 17.9922 23.8203 19.2891C23.8203 19.2891 30.1797 23.7578 50.0078 25.7578C69.8359 23.7578 76.3828 19.8359 76.3828 19.8359C75.6953 18.4219 74.9844 17.1094 74.9844 17.1094C78.5 16.5312 86.1016 13.9297 89.0078 13C89.9844 12.6875 90.6406 11.7891 90.6406 10.7656V10.1406H90.625Z" fill="url(#paint1_linear_7_323)"/>
<path d="M50 3.89062C50 3.89062 33.4609 4.08594 9.375 10.1406C9.375 10.1406 37.0391 17.6953 50 17.4688C62.9609 17.6953 90.625 10.1406 90.625 10.1406C66.5391 4.08594 50 3.89062 50 3.89062Z" fill="url(#paint2_linear_7_323)"/>
<path opacity="0.4" d="M90.625 10.1406C66.5391 4.08594 50 3.89062 50 3.89062C50 3.89062 33.4609 4.08594 9.375 10.1406V10.7422C9.375 11.7813 10.0547 12.6953 11.0469 12.9844C13.9531 13.8438 21.3047 15.8672 25.25 16.6641C25.25 16.6641 24.5 17.8828 23.8203 19.4219C23.8203 19.4219 30.1797 23.7578 50.0078 25.7656C69.8359 23.7656 76.3828 19.8438 76.3828 19.8438C75.6953 18.4297 74.9844 17.1172 74.9844 17.1172C78.5 16.5391 86.1016 13.9375 89.0078 13.0078C89.9844 12.6953 90.6406 11.7969 90.6406 10.7734V10.1406H90.625Z" fill="url(#paint3_linear_7_323)"/>
<path d="M31.258 39.625C33.594 36.3203 38.8986 36.0078 41.9377 38.4687C42.4221 38.8593 43.0627 39.4062 43.2502 40.0156C43.5627 41.0078 42.6096 41.7812 41.6799 41.5468C41.0861 41.3984 40.5315 41.0781 39.9455 40.8984C38.8752 40.5625 38.1018 40.4687 37.1408 40.4687C35.719 40.4609 34.8049 40.6406 33.4533 41.1875C32.8986 41.414 32.4455 41.7734 31.8127 41.5078C31.0861 41.2031 30.8205 40.2812 31.258 39.625ZM67.2424 41.5C67.0158 41.3984 66.7971 41.2734 66.5705 41.1796C65.1799 40.6015 64.3908 40.4531 62.883 40.4609C61.5549 40.4687 60.7658 40.6484 59.7268 41C59.094 41.2187 58.2893 41.7656 57.5861 41.5546C56.5549 41.2421 56.5861 40.1171 57.1486 39.3984C57.8205 38.5546 58.7424 37.914 59.719 37.4921C61.9846 36.5078 64.7502 36.6484 66.883 37.9218C67.5783 38.3359 68.3361 38.9062 68.758 39.625C69.3674 40.6484 68.4455 41.9921 67.2424 41.5Z" fill="#6D4C41"/>
<path d="M89.4531 94.5234C89.4531 83.1094 72.4609 77.6953 57.6406 76.4766L50.9219 85.0937C50.7031 85.375 50.3594 85.5469 50 85.5469C49.6406 85.5469 49.2969 85.3828 49.0781 85.0937L42.3438 76.4609C34.1016 77.0938 10.5391 80.1719 10.5391 94.5234V96.875H89.4453L89.4531 94.5234Z" fill="#212121"/>
<path d="M89.4531 94.5234C89.4531 83.1094 72.4609 77.6953 57.6406 76.4766L50.9219 85.0937C50.7031 85.375 50.3594 85.5469 50 85.5469C49.6406 85.5469 49.2969 85.3828 49.0781 85.0937L42.3438 76.4609C34.1016 77.0938 10.5391 80.1719 10.5391 94.5234V96.875H89.4453L89.4531 94.5234Z" fill="url(#paint4_radial_7_323)"/>
<defs>
<radialGradient id="paint0_radial_7_323" cx="0" cy="0" r="1" gradientUnits="userSpaceOnUse" gradientTransform="translate(50.0009 36.4566) scale(29.5883 33.3815)">
<stop offset="0.794" stop-color="#6D4C41" stop-opacity="0"/>
<stop offset="1" stop-color="#6D4C41"/>
</radialGradient>
<linearGradient id="paint1_linear_7_323" x1="50" y1="0.507031" x2="50" y2="22.8828" gradientUnits="userSpaceOnUse">
<stop offset="0.003" stop-color="#424242"/>
<stop offset="0.472" stop-color="#353535"/>
<stop offset="1" stop-color="#212121"/>
</linearGradient>
<linearGradient id="paint2_linear_7_323" x1="50" y1="0.6375" x2="50" y2="24.8562" gradientUnits="userSpaceOnUse">
<stop offset="0.003" stop-color="#616161"/>
<stop offset="0.324" stop-color="#505050"/>
<stop offset="0.955" stop-color="#242424"/>
<stop offset="1" stop-color="#212121"/>
</linearGradient>
<linearGradient id="paint3_linear_7_323" x1="10.8539" y1="14.8305" x2="89.6258" y2="14.8305" gradientUnits="userSpaceOnUse">
<stop offset="0.001" stop-color="#BFBEBE"/>
<stop offset="0.3" stop-color="#212121" stop-opacity="0"/>
<stop offset="0.7" stop-color="#212121" stop-opacity="0"/>
<stop offset="1" stop-color="#BFBEBE"/>
</linearGradient>
<radialGradient id="paint4_radial_7_323" cx="0" cy="0" r="1" gradientUnits="userSpaceOnUse" gradientTransform="translate(50 95.7837) scale(42.318 22.2042)">
<stop offset="0.598" stop-color="#212121"/>
<stop offset="1" stop-color="#616161"/>
</radialGradient>
</defs>
</svg>
