<svg width="184" height="140" viewBox="0 0 184 140" fill="none" xmlns="http://www.w3.org/2000/svg">
<path fill-rule="evenodd" clip-rule="evenodd" d="M99.5798 0.154866C53.3179 -2.17833 11.6548 22.1658 1.20388 51.9896C-7.37841 76.4809 31.6994 91.9598 62.0993 107.113C95.5819 123.803 133.845 151.297 167.813 135.039C201.8 118.771 173.775 86.3004 160.482 60.0227C147.732 34.8182 139.737 2.18017 99.5798 0.154866Z" fill="#EEF0F4"/>
<path d="M58.3179 129.767C62.0866 127.812 67.5218 123.98 74.7077 118.053L66.1999 109.615C60.3429 116.731 56.5108 122.166 54.5562 126.005C56.6444 126.069 58.2476 127.742 58.3179 129.767Z" fill="#BDBDBD"/>
<path d="M53.4315 130.878C53.9869 131.433 55.2455 131.23 57.1299 130.323C57.4815 130.182 57.8963 129.971 58.2479 129.767C58.2169 128.777 57.8099 127.837 57.1097 127.136C56.4095 126.436 55.4688 126.029 54.4791 125.998C54.2682 126.42 54.0572 126.765 53.9236 127.116C53.0869 129.001 52.9463 130.323 53.4315 130.878V130.878Z" fill="#616161"/>
<path d="M58.3741 123.812C58.2616 123.91 58.1421 124.009 58.0226 124.114C57.8046 124.297 57.5444 124.494 57.2632 124.423C57.3897 123.91 57.664 123.446 57.9312 122.989C59.8858 119.684 61.3132 117.16 64.1397 114.509C64.3296 114.334 64.5405 114.151 64.7937 114.109C65.2085 114.045 65.5741 114.383 65.7991 114.727C66.0312 115.079 66.4038 115.747 66.3405 116.19C66.2772 116.661 65.7569 116.942 65.4054 117.259C62.839 119.572 61.0038 121.541 58.3741 123.812V123.812Z" fill="#EEEEEE"/>
<path d="M125.846 49.4702C125.136 48.8444 123.877 47.6983 123.877 47.6983C123.167 47.0725 122.239 46.7631 121.269 46.8194C120.298 46.8827 119.419 47.3045 118.808 47.9936C116.002 50.7358 113.19 53.478 110.384 56.2202C106.559 59.9608 97.2851 69.0522 96.6664 69.8256C96.0476 70.6061 96.4625 71.042 96.5328 71.1194C97.4609 72.1389 99.1273 72.2795 100.344 71.6186C101.553 70.9577 102.319 69.6428 102.544 68.2788C102.692 67.3928 102.748 66.9498 103.402 66.3733C103.641 66.1623 116.966 53.7241 119.005 51.4038C119.342 51.017 120.355 50.2084 121.466 51.0592C121.641 51.1928 125.494 54.4413 125.494 54.4413L127.948 51.6569L127.941 51.4952C127.927 51.3053 127.927 51.3053 125.846 49.4702V49.4702Z" fill="#BDBDBD"/>
<path d="M101.61 82.6718L96.2376 77.2999C74.3423 99.4835 66.6431 107.998 64.7517 110.438C64.4212 110.867 64.4564 111.472 64.8431 111.859L72.4861 119.227C72.8728 119.614 73.4775 119.649 73.9064 119.319C76.3462 117.427 84.8751 110.016 107.052 88.121C106.981 88.0437 101.61 82.6718 101.61 82.6718V82.6718Z" fill="#1565C0"/>
<path d="M123.765 51.3616C123.329 50.6866 122.267 49.7303 121.536 49.3998C120.699 49.0272 120.08 49.3928 119.546 49.8639C118.604 50.6936 112.339 57.1975 110.968 58.9061C110.813 59.103 110.651 59.3209 110.651 59.567C114.23 56.1709 117.872 52.817 119.033 51.8116C119.919 51.0452 120.776 50.3631 121.472 51.0592C121.543 51.1295 122.028 51.5162 122.907 52.2545L123.765 51.3616Z" fill="#757575"/>
<path d="M136.562 55.9529C137.427 54.7084 136.21 51.9733 134.263 50.0889C132.308 48.2045 129.643 46.8967 128.398 47.7897C127.161 48.6826 111.931 59.2998 94.3531 77.7217C93.868 78.2772 93.868 79.1139 94.3531 79.6061L104.816 90.0686C105.301 90.5537 106.145 90.624 106.7 90.0686C125.052 72.4201 135.704 57.1975 136.562 55.9529V55.9529Z" fill="#1565C0"/>
<path d="M70.6435 110.122C69.863 110.733 67.5498 111.83 69.3287 109.046C69.7505 108.392 71.1779 106.627 71.7826 105.917C74.1099 103.161 87.4412 89.6819 89.8107 87.1928C91.7373 85.1678 93.4388 84.6756 93.9943 86.0819C94.374 87.0522 93.5865 88.1772 89.4802 92.5506C86.063 96.1788 74.6865 106.923 70.6435 110.122ZM108.872 72.7928C108.872 72.7928 106.404 75.7741 104.611 74.2623C103.191 73.06 106.482 70.2123 106.482 70.2123C106.566 70.1209 117.851 59.5178 121.205 56.8248C122.583 55.7139 124.341 54.4764 124.826 54.9053C125.311 55.3342 124.51 56.6983 122.394 58.8006C120.27 60.903 108.95 72.7084 108.872 72.7928Z" fill="#2196F3"/>
<path d="M100.857 66.8514C100.309 67.21 100.527 68.8483 100.189 69.685C99.915 70.3529 99.9221 70.7045 100.485 70.5358C101.082 70.353 101.75 69.4529 101.75 68.0537C101.743 67.3717 101.427 66.4717 100.857 66.8514Z" fill="#EEEEEE"/>
<path d="M123.16 51.678L122.527 52.1702C124.004 53.0772 125.867 54.4764 127.787 56.3959C128.637 57.2467 129.812 58.6038 130.22 59.4264C130.599 60.2069 130.74 61.4022 130.416 62.5202C130.065 63.7366 129.509 64.285 129.284 65.5225C130.402 64.1374 132.659 61.2475 132.659 61.2475C132.659 61.2475 131.682 58.7374 128.342 55.3905C125.002 52.0436 123.16 51.678 123.16 51.678V51.678Z" fill="#0D47A1"/>
<path d="M134.262 50.089C132.751 48.6335 130.817 47.5226 129.446 47.5015C129.446 47.5015 131.914 48.8233 133.334 50.6726C134.839 52.6272 135.816 54.4062 135.141 55.5241C134.016 57.1413 124.046 71.2952 106.468 88.3319C106.396 88.4019 106.31 88.4552 106.216 88.4879C106.121 88.5207 106.02 88.5321 105.921 88.5213C105.821 88.5106 105.726 88.4779 105.64 88.4257C105.555 88.3735 105.482 88.3031 105.427 88.2194C104.429 86.6796 103.093 85.0554 101.096 83.0655C98.2412 80.2108 96.399 78.9241 94.2545 77.8413C94.2545 77.8413 93.7623 78.1015 93.6357 78.9663C93.5514 79.5218 93.6006 79.9718 93.6006 79.9718L94.2053 79.4163C95.8857 80.3585 97.9318 81.8772 100.112 84.064C101.047 84.9991 101.89 85.9413 102.622 86.8483C102.72 87.0312 103.451 88.578 101.954 90.9757C101.954 90.9757 101.729 91.264 101.391 91.714C83.792 108.976 75.6076 116.337 73.9975 117.434C72.31 118.58 71.417 118.194 71.417 118.194C71.6279 118.405 72.092 118.925 72.6123 119.333C73.1396 119.748 73.7092 119.466 73.899 119.312C75.9381 117.73 82.224 112.301 97.1514 97.8101C97.1725 97.789 97.1936 97.7749 97.2076 97.7538C99.4014 95.6233 101.785 93.296 104.365 90.7577C104.379 90.7577 104.822 90.8069 105.371 90.7226C106.229 90.596 106.552 90.1952 106.552 90.1952V90.1882C106.601 90.153 106.651 90.1108 106.7 90.0687C125.051 72.4202 135.697 57.1976 136.562 55.953C137.426 54.7085 136.217 51.9733 134.262 50.089V50.089Z" fill="#0D47A1"/>
<path d="M104.197 79.9788C102.038 77.8202 99.528 75.8444 97.2851 74.6983C97.2851 74.6983 96.7296 74.6631 96.2093 75.2397C95.8155 75.6756 95.7241 76.2944 95.7241 76.2944C97.4257 77.0467 99.9147 78.6569 102.72 81.4553C104.83 83.5647 106.545 85.7866 107.551 87.7272C107.755 88.1209 107.909 88.4655 108.029 88.7819C108.029 88.7819 108.648 88.7889 109.168 88.3389C109.751 87.8256 109.632 87.2069 109.632 87.2069C108.521 84.8795 106.461 82.2428 104.197 79.9788V79.9788Z" fill="#FFC107"/>
<path d="M130.965 53.2179C129.509 51.7624 127.892 50.3984 126.31 49.3085C126.31 49.3085 125.227 48.8937 124.236 49.8077C123.244 50.7218 123.167 51.6851 123.167 51.6851C124.644 52.5921 126.408 53.9421 128.328 55.8616C130.121 57.6546 131.626 59.539 132.659 61.2546C132.659 61.2546 133.756 61.1702 134.529 60.2491C135.303 59.328 135.029 58.1046 135.029 58.1046C133.918 56.4382 132.49 54.7437 130.965 53.2179V53.2179Z" fill="#BDBDBD"/>
<path d="M125.368 50.1663C124.995 50.2436 124.644 50.5319 124.623 50.9116C124.602 51.2983 124.911 51.6077 125.199 51.8678C126.099 52.6835 127.034 53.5131 128.187 53.8999C128.441 53.9842 128.771 54.0335 128.947 53.8295C129.059 53.703 129.066 53.5131 129.052 53.3444C128.996 52.6483 128.644 52.0085 128.187 51.4811C127.47 50.6655 126.528 49.9272 125.368 50.1663V50.1663Z" fill="#EEEEEE"/>
</svg>
