<svg width="179" height="148" viewBox="0 0 179 148" fill="none" xmlns="http://www.w3.org/2000/svg">
<path fill-rule="evenodd" clip-rule="evenodd" d="M82.1262 0.163716C127.131 -2.3028 167.662 23.4324 177.829 54.9604C186.178 80.8513 148.162 97.2147 118.588 113.234C86.0155 130.878 48.7916 159.942 15.7476 142.755C-17.3158 125.558 9.94719 91.2319 22.8789 63.4526C35.2825 36.8078 43.0602 2.30476 82.1262 0.163716Z" fill="#EEF0F4"/>
<path fill-rule="evenodd" clip-rule="evenodd" d="M53.4375 131.75H129.375V126.125H56.25V53H50.625V128.938L53.4375 131.75ZM61.875 117.688V72.6875L64.6875 69.875H75.9375L78.75 72.6875V117.688L75.9375 120.5H64.6875L61.875 117.688ZM73.125 114.875V75.5H67.5V114.875H73.125ZM106.875 61.4375V117.688L109.688 120.5H120.938L123.75 117.688V61.4375L120.938 58.625H109.688L106.875 61.4375ZM118.125 64.25V114.875H112.5V64.25H118.125ZM84.375 117.688V83.9375L87.1875 81.125H98.4375L101.25 83.9375V117.688L98.4375 120.5H87.1875L84.375 117.688ZM95.625 114.875V86.75H90V114.875H95.625Z" fill="#043249"/>
</svg>
