<svg width="64" height="50" viewBox="0 0 64 50" fill="none" xmlns="http://www.w3.org/2000/svg">
<g clip-path="url(#clip0_6_1828)">
<path d="M62.5866 7.79861C62.2195 6.29127 61.5034 4.91707 60.5096 3.81286C59.5159 2.70864 58.2792 1.91295 56.9226 1.505C51.9561 0 31.9676 0 31.9676 0C31.9676 0 11.978 0.0455554 7.01155 1.55056C5.65492 1.95853 4.41816 2.75427 3.42441 3.85853C2.43066 4.96279 1.7146 6.33705 1.34755 7.84444C-0.154702 17.6494 -0.737452 32.59 1.3888 42.0028C1.75589 43.5101 2.47196 44.8843 3.46571 45.9885C4.45946 47.0927 5.6962 47.8884 7.0528 48.2964C12.0193 49.8014 32.0083 49.8014 32.0083 49.8014C32.0083 49.8014 51.9971 49.8014 56.9633 48.2964C58.3199 47.8885 59.5567 47.0928 60.5505 45.9886C61.5443 44.8844 62.2604 43.5102 62.6276 42.0028C64.2121 32.1839 64.7003 17.2528 62.5866 7.79889V7.79861Z" fill="#FF0000"/>
<path d="M25.6055 35.5723L42.1875 24.9007L25.6055 14.229V35.5723Z" fill="white"/>
</g>
<defs>
<clipPath id="clip0_6_1828">
<rect width="64" height="50" fill="white"/>
</clipPath>
</defs>
</svg>
