<svg width="58" height="50" viewBox="0 0 58 50" fill="none" xmlns="http://www.w3.org/2000/svg">
<g clip-path="url(#clip0_7_44)">
<path d="M58 6.08864C55.8281 7.10461 53.5244 7.7715 51.1655 8.06711C53.6226 6.51209 55.5092 4.04965 56.3975 1.11568C54.0618 2.57928 51.5063 3.61048 48.8414 4.16472C46.6707 1.72285 43.5784 0.196777 40.1557 0.196777C33.584 0.196777 28.256 5.82261 28.256 12.7614C28.256 13.7463 28.3613 14.7051 28.5641 15.625C18.6746 15.1008 9.90667 10.0987 4.03757 2.49678C3.01351 4.35252 2.42671 6.51113 2.42671 8.81352C2.42671 13.1729 4.52763 17.0185 7.72034 19.2719C5.8307 19.2094 3.98263 18.6705 2.33042 17.7001C2.32974 17.7528 2.32974 17.8054 2.32974 17.8583C2.32974 23.9461 6.43143 29.0245 11.8748 30.1788C10.1226 30.682 8.28455 30.7557 6.50121 30.3941C8.01533 35.386 12.41 39.0185 17.6168 39.1202C13.5444 42.4901 8.4134 44.4989 2.8386 44.4989C1.87798 44.4989 0.930945 44.4394 0 44.3233C5.26599 47.8884 11.5207 49.9685 18.2405 49.9685C40.1281 49.9685 52.0967 30.8224 52.0967 14.2185C52.0967 13.6736 52.0854 13.1317 52.0623 12.5929C54.3918 10.8147 56.4025 8.61212 58 6.08864Z" fill="#55ACEE"/>
</g>
<defs>
<clipPath id="clip0_7_44">
<rect width="58" height="50" fill="white"/>
</clipPath>
</defs>
</svg>
