<svg width="50" height="50" viewBox="0 0 50 50" fill="none" xmlns="http://www.w3.org/2000/svg">
<g clip-path="url(#clip0_7_38)">
<path d="M47.2404 50.0002C48.7643 50.0002 50 48.7646 50 47.2406V2.75957C50 1.23535 48.7643 0 47.2404 0H2.75957C1.23516 0 0 1.23535 0 2.75957V47.2406C0 48.7646 1.23516 50.0002 2.75957 50.0002H47.2404Z" fill="#395185"/>
<path d="M34.4988 50.0002V30.6375H40.9982L41.9713 23.0916H34.4988V18.2736C34.4988 16.0889 35.1057 14.6 38.2387 14.6L42.2346 14.5982V7.84922C41.5432 7.75723 39.1713 7.55176 36.4119 7.55176C30.6506 7.55176 26.7064 11.0684 26.7064 17.5266V23.0916H20.1904V30.6375H26.7064V50.0002H34.4988Z" fill="white"/>
</g>
<defs>
<clipPath id="clip0_7_38">
<rect width="50" height="50" fill="white"/>
</clipPath>
</defs>
</svg>
