<svg width="80" height="80" viewBox="0 0 80 80" fill="none" xmlns="http://www.w3.org/2000/svg">
<g clip-path="url(#clip0_7_114)">
<path d="M7.1377 26.0186H73.8002V79.9998H7.1377V26.0186Z" fill="#006CA2"/>
<path d="M28.3501 7.66895H52.0876V30.3939H28.3501V7.66895Z" fill="white"/>
<path d="M71.1373 21.4001H59.9061C58.6373 21.4001 57.5123 21.2376 56.7873 20.6438C56.1373 20.1126 55.9248 19.1188 55.8873 18.2751V10.4563C55.8873 9.7626 55.3936 8.91885 54.7873 8.58135L41.0936 0.931348C40.4936 0.593848 39.4998 0.593848 38.8936 0.931348L25.1936 8.58135C24.5873 8.91885 24.0936 9.7626 24.0936 10.4563V18.4438C24.0373 19.2501 23.8123 20.1501 23.2061 20.6501C22.4873 21.2438 21.3561 21.4063 20.0936 21.4063H8.86855C5.4623 21.4063 2.6748 24.1938 2.6748 27.5938V80.0001H29.6248V71.8876C29.6248 69.9876 31.1748 68.4314 33.0748 68.4314H46.9186C48.8186 68.4314 50.3748 69.9813 50.3748 71.8876V80.0001H77.3311V27.5938C77.3248 24.1876 74.5436 21.4001 71.1373 21.4001ZM18.0498 59.8626H10.3498V50.0501H18.0498V59.8626ZM18.0498 44.2688H10.3498V34.4563H18.0498V44.2688ZM30.9498 59.8626H23.2498V50.0501H30.9498V59.8626ZM30.9498 44.2688H23.2498V34.4563H30.9498V44.2688ZM43.8436 59.8626H36.1436V50.0501H43.8436V59.8626ZM43.8436 44.2688H36.1436V34.4563H43.8436V44.2688ZM39.9936 25.8563C38.5561 25.8563 37.2061 25.5063 36.0061 24.9063C34.4498 24.1251 33.1561 22.9063 32.2873 21.4063C31.5248 20.0938 31.0873 18.5751 31.0873 16.9501C31.0873 12.0251 35.0748 8.0376 39.9998 8.0376C44.9186 8.0376 48.9123 12.0313 48.9123 16.9501C48.9123 18.5751 48.4686 20.0938 47.7061 21.4063C46.9219 22.7578 45.7971 23.8799 44.4438 24.6608C43.0904 25.4416 41.556 25.8539 39.9936 25.8563ZM56.7436 59.8626H49.0436V50.0501H56.7436V59.8626ZM56.7436 44.2688H49.0436V34.4563H56.7436V44.2688ZM69.6436 59.8626H61.9373V50.0501H69.6373V59.8626H69.6436ZM69.6436 44.2688H61.9373V34.4563H69.6373V44.2688H69.6436Z" fill="#F79329"/>
<path d="M40.8562 15.6188V9.1875H39.1187V15.625C38.7124 15.8938 38.4374 16.325 38.4062 16.8438L34.4312 19.1L35.2937 20.6125L39.2687 18.35C39.4937 18.4625 39.7312 18.5437 39.9999 18.5437C40.4276 18.5437 40.8377 18.3739 41.1401 18.0715C41.4425 17.7691 41.6124 17.3589 41.6124 16.9313C41.6062 16.375 41.2999 15.9062 40.8562 15.6188Z" fill="#2F2F2F"/>
</g>
<defs>
<clipPath id="clip0_7_114">
<rect width="80" height="80" fill="white"/>
</clipPath>
</defs>
</svg>
