<svg width="64" height="64" viewBox="0 0 64 64" fill="none" xmlns="http://www.w3.org/2000/svg">
<path d="M62 32C62 48.6 48.6 62 32 62C15.4 62 2 48.6 2 32C2 15.4 15.4 2 32 2C48.6 2 62 15.4 62 32Z" fill="#ED4C5C"/>
<path d="M49.3001 22.7999L44.2001 22.4999L43.8001 22.1999L42.7001 23.0999L42.9001 23.8999L42.5001 25.1999L40.3001 29.9999L40.1001 30.9999L40.2001 31.9999L39.7001 32.1999L34.6001 29.4999L34.4001 29.6999L34.6001 29.4999L32.9001 24.2999L30.7001 20.5999L28.8001 20.3999L27.3001 21.4999L20.6001 24.2999L19.0001 23.7999L16.4001 21.3999L15.6001 21.7999L18.2001 26.1999V26.6999L19.5001 27.0999L20.1001 26.4999L21.3001 26.0999L26.6001 25.3999L27.5001 24.9999L28.4001 24.2999L28.8001 24.5999L29.3001 30.0999L25.5001 33.8999L23.3001 37.5999L24.0001 39.3999L25.7001 40.0999L31.2001 44.7999L31.5001 46.3999L30.6001 49.8999L31.3001 50.3999L34.0001 46.0999L34.4001 45.8999L34.2001 44.4999L33.4001 44.2999L32.5001 43.3999L29.5001 38.9999L28.6001 38.2999L27.7001 37.8999L27.8001 37.3999L32.4001 34.3999H32.5001L37.7001 35.8999L42.0001 36.0999L43.2001 34.4999L43.1001 32.6999L44.4001 25.5999L45.7001 24.5999L49.2001 23.6999L49.3001 22.7999Z" fill="white"/>
<path d="M23.9998 37.5999L25.6998 37.6999L26.2998 37.3999L26.6998 36.8999L27.0998 36.9999L27.1998 38.4999L26.5998 38.5999L26.1998 38.1999L25.1998 38.0999L24.2998 38.4999L23.7998 38.2999L23.9998 37.5999Z" fill="#FFE606"/>
<path d="M32.9001 47.4002L31.2001 47.7002L31.0001 48.5002L32.7001 48.0002L32.9001 47.4002ZM46.5001 22.7002L45.8001 22.8002L46.9001 24.1002L47.7001 23.9002L46.5001 22.7002ZM40.9001 32.1002L39.7001 32.9002V33.4002L40.3001 33.5002L40.9001 33.9002L41.7001 35.4002L42.4001 35.3002L42.3001 34.7002L41.9001 34.3002L41.6001 34.1002L41.1001 33.2002L41.3001 32.6002L40.9001 32.1002ZM17.4001 22.5002L17.1001 24.2002L17.6001 24.6002L18.0001 23.0002L17.4001 22.5002ZM29.8001 20.7002L29.4001 21.1002L29.3001 22.0002L28.8001 22.9002L28.2001 23.1002L28.1001 23.7002L29.4001 24.3002L29.8001 23.9002L29.5001 23.4002V22.7002L30.4001 21.2002L29.8001 20.7002Z" fill="#F9DD19"/>
<path d="M32.4 34.3998L32.3 34.4998V34.5998H32.8L32.4 34.3998ZM29.2 29.6998L29 30.2998L29.2 30.0998V29.6998ZM34.6 28.7998L34.4 28.8998L34.6 29.4998L34.4 29.6998L34.6 29.4998L34.7 29.5998L34.8 29.4998L34.6 28.7998Z" fill="#F9DB17"/>
<path d="M34.4001 28.8999L32.1001 30.6999L29.2001 29.6999L29.3001 30.0999L29.1001 30.2999L31.6001 31.3999L32.3001 34.4999L32.4001 34.3999H32.5001L32.9001 34.5999H33.0001L32.6001 31.3999L34.7001 29.5999L34.6001 29.4999L34.4001 29.6999L34.6001 29.4999L34.4001 28.8999Z" fill="#F9DD19"/>
<path d="M19.4999 26L19.9999 27.5H21.5999L20.2999 28.4L20.7999 29.9L19.4999 29L18.1999 29.9L18.6999 28.4L17.3999 27.5H18.9999L19.4999 26ZM41.6999 20.5L42.1999 22H43.7999L42.4999 23L42.9999 24.5L41.6999 23.5L40.3999 24.5L40.8999 23L39.5999 22H41.1999L41.6999 20.5ZM35.1999 41.5L35.6999 43H37.2999L35.9999 44L36.4999 45.5L35.1999 44.6L33.9999 45.5L34.3999 44L33.1999 43H34.7999L35.1999 41.5Z" fill="#F9DD16"/>
</svg>
