<svg width="203" height="167" viewBox="0 0 203 167" fill="none" xmlns="http://www.w3.org/2000/svg">
<path fill-rule="evenodd" clip-rule="evenodd" d="M93.1375 0.184672C144.176 -2.5985 190.142 26.4405 201.672 62.0161C211.14 91.2308 168.027 109.695 134.488 127.771C97.5483 147.679 55.3335 180.475 17.859 161.082C-19.6375 141.677 11.2809 102.944 25.9465 71.5985C40.0131 41.5331 48.8337 2.60058 93.1375 0.184672Z" fill="#EEF0F4"/>
<path d="M97.6668 133.111C97.6668 139.247 95.4695 144.222 89.3334 144.222H69.889C58.7779 144.222 58.7779 105.333 69.889 105.333H89.3334C95.4695 105.333 97.6668 110.308 97.6668 116.444V133.111Z" fill="#553788"/>
<path d="M150.444 138.667H147.667V110.889H150.444C151.181 110.889 151.888 110.596 152.409 110.075C152.929 109.554 153.222 108.848 153.222 108.111C153.222 107.374 152.929 106.668 152.409 106.147C151.888 105.626 151.181 105.333 150.444 105.333H83.7777C72.6666 105.333 72.6666 144.222 83.7777 144.222H150.444C151.181 144.222 151.888 143.929 152.409 143.409C152.929 142.888 153.222 142.181 153.222 141.444C153.222 140.708 152.929 140.001 152.409 139.48C151.888 138.959 151.181 138.667 150.444 138.667Z" fill="#9266CC"/>
<path d="M150.922 138.667H86.5553C80.9998 138.667 80.9998 110.889 86.5553 110.889H150.922C153.989 110.889 153.989 138.667 150.922 138.667Z" fill="#CCD6DD"/>
<path d="M87.9445 116.444H152.806C152.431 113.181 151.806 110.889 150.922 110.889H86.5557C81.9695 110.889 81.1723 129.8 84.1584 136.411C83.0695 128.192 84.3307 116.444 87.9445 116.444Z" fill="#99AAB5"/>
<path d="M89.3334 69.2222C89.3334 72.169 88.1628 74.9952 86.079 77.0789C83.9953 79.1626 81.1691 80.3333 78.2223 80.3333H67.1112C56.0001 80.3333 56.0001 49.7777 67.1112 49.7777H78.2223C81.1691 49.7777 83.9953 50.9483 86.079 53.0321C88.1628 55.1158 89.3334 57.942 89.3334 60.8888V69.2222Z" fill="#226699"/>
<path d="M142.111 74.7777H139.334V55.3333H142.111C142.848 55.3333 143.555 55.0406 144.076 54.5197C144.596 53.9987 144.889 53.2922 144.889 52.5555C144.889 51.8188 144.596 51.1122 144.076 50.5913C143.555 50.0704 142.848 49.7777 142.111 49.7777H75.4447C64.3336 49.7777 64.3336 80.3333 75.4447 80.3333H142.111C142.848 80.3333 143.555 80.0406 144.076 79.5197C144.596 78.9987 144.889 78.2922 144.889 77.5555C144.889 76.8188 144.596 76.1122 144.076 75.5913C143.555 75.0704 142.848 74.7777 142.111 74.7777Z" fill="#55ACEE"/>
<path d="M142.589 74.7777H78.2223C72.6668 74.7777 72.6668 55.3333 78.2223 55.3333H142.589C145.656 55.3333 145.656 74.7777 142.589 74.7777Z" fill="#CCD6DD"/>
<path d="M78.2224 60.8888H144.681C144.364 57.7638 143.67 55.3333 142.589 55.3333H78.2224C74.9085 55.3333 73.5863 62.2471 74.2279 67.8333C74.6613 64.061 75.9807 60.8888 78.2224 60.8888Z" fill="#99AAB5"/>
<path d="M111.556 94.2221C111.556 97.169 110.385 99.9951 108.301 102.079C106.218 104.163 103.391 105.333 100.445 105.333H72.6668C61.5557 105.333 61.5557 80.3333 72.6668 80.3333H100.445C103.391 80.3333 106.218 81.5039 108.301 83.5876C110.385 85.6714 111.556 88.4975 111.556 91.4444V94.2221Z" fill="#F4900C"/>
<path d="M153.222 99.7777H150.445V85.8888H153.222C153.959 85.8888 154.666 85.5961 155.187 85.0752C155.708 84.5543 156 83.8477 156 83.111C156 82.3743 155.708 81.6678 155.187 81.1468C154.666 80.6259 153.959 80.3333 153.222 80.3333H97.6668C86.5557 80.3333 86.5557 105.333 97.6668 105.333H153.222C153.959 105.333 154.666 105.041 155.187 104.52C155.708 103.999 156 103.292 156 102.555C156 101.819 155.708 101.112 155.187 100.591C154.666 100.07 153.959 99.7777 153.222 99.7777Z" fill="#FFAC33"/>
<path d="M153.7 99.7777H100.444C94.8889 99.7777 94.8889 85.8889 100.444 85.8889H153.7C156.767 85.8889 156.767 99.7777 153.7 99.7777Z" fill="#CCD6DD"/>
<path d="M100.445 91.4444H155.956C155.775 88.4944 155.028 85.8889 153.7 85.8889H100.445C96.9057 85.8889 95.6307 91.5194 96.6029 95.6111C97.1529 93.2805 98.4279 91.4444 100.445 91.4444Z" fill="#99AAB5"/>
</svg>
