<svg width="170" height="150" viewBox="0 0 170 150" fill="none" xmlns="http://www.w3.org/2000/svg">
<path fill-rule="evenodd" clip-rule="evenodd" d="M77.9969 0.165928C120.739 -2.33392 159.232 23.749 168.888 55.7032C176.817 81.9439 140.713 98.5284 112.626 114.764C81.6907 132.646 46.3384 162.104 14.9558 144.684C-16.4452 127.254 9.44705 92.4647 21.7286 64.3101C33.5085 37.3052 40.8952 2.3359 77.9969 0.165928Z" fill="#EEF0F4"/>
<path d="M119.363 51.6562H49.6367C47.1465 51.6562 44.6562 54.1465 44.6562 56.6367V112.668C44.6562 115.158 47.1465 117.648 49.6367 117.648H74.5391V122.629C74.5391 126.087 70.0527 127.609 64.5781 127.609V131.344H104.422V127.608C98.946 127.608 94.4609 126.086 94.4609 122.627V117.647H119.363C121.854 117.647 124.344 115.157 124.344 112.666V56.6367C124.344 54.1465 121.854 51.6562 119.363 51.6562ZM121.688 112.668C121.688 113.689 120.383 114.992 119.363 114.992H49.6367C48.6154 114.992 47.3125 113.689 47.3125 112.668V107.687H121.688V112.668Z" fill="#043249"/>
<path d="M84.5002 113.913C85.1882 113.913 85.746 113.356 85.746 112.668C85.746 111.98 85.1882 111.422 84.5002 111.422C83.8122 111.422 83.2544 111.98 83.2544 112.668C83.2544 113.356 83.8122 113.913 84.5002 113.913Z" fill="#6600FF"/>
</svg>
