<svg width="179" height="154" viewBox="0 0 179 154" fill="none" xmlns="http://www.w3.org/2000/svg">
<path fill-rule="evenodd" clip-rule="evenodd" d="M82.1262 0.170353C127.131 -2.39616 167.662 24.3824 177.829 57.1886C186.178 84.129 148.162 101.156 118.588 117.824C86.0155 136.183 48.7916 166.426 15.7476 148.542C-17.3158 130.648 9.94719 94.9304 22.8789 66.025C35.2825 38.3 43.0602 2.39819 82.1262 0.170353Z" fill="#EEF0F4"/>
<g clip-path="url(#clip0_705_10)">
<path d="M45 88.3749V136.187C45 137.741 46.0069 139 47.25 139H58.5V82.7499H49.5C47.0152 82.7499 45 85.2688 45 88.3749ZM95.625 79.9374H92.25V72.9061C92.25 72.1292 91.7466 71.4999 91.125 71.4999H88.875C88.2534 71.4999 87.75 72.1292 87.75 72.9061V84.1561C87.75 84.9331 88.2534 85.5624 88.875 85.5624H95.625C96.2466 85.5624 96.75 84.9331 96.75 84.1561V81.3436C96.75 80.5667 96.2466 79.9374 95.625 79.9374ZM114.996 68.6944L92.4961 49.9438C91.7568 49.3283 90.8883 48.9999 90 48.9999C89.1117 48.9999 88.2432 49.3283 87.5039 49.9438L65.0039 68.6944C64.3876 69.208 63.8823 69.9038 63.5327 70.7201C63.1831 71.5364 63.0002 72.4479 63 73.3737V139H81V113.687C81 112.133 82.0069 110.875 83.25 110.875H96.75C97.9931 110.875 99 112.133 99 113.687V139H117V73.3755C117 71.4946 116.248 69.7368 114.996 68.6944ZM90 93.9999C83.7872 93.9999 78.75 87.7034 78.75 79.9374C78.75 72.1714 83.7872 65.8749 90 65.8749C96.2128 65.8749 101.25 72.1714 101.25 79.9374C101.25 87.7034 96.2128 93.9999 90 93.9999ZM130.5 82.7499H121.5V139H132.75C133.993 139 135 137.741 135 136.187V88.3749C135 85.2688 132.985 82.7499 130.5 82.7499Z" fill="#043249"/>
</g>
<defs>
<clipPath id="clip0_705_10">
<rect width="90" height="90" fill="white" transform="translate(45 49)"/>
</clipPath>
</defs>
</svg>
