<svg width="50" height="50" viewBox="0 0 50 50" fill="none" xmlns="http://www.w3.org/2000/svg">
<path d="M36.1248 11.3748C35.6304 11.3748 35.147 11.5215 34.7359 11.7962C34.3248 12.0709 34.0044 12.4613 33.8151 12.9181C33.6259 13.3749 33.5764 13.8776 33.6729 14.3626C33.7693 14.8475 34.0074 15.293 34.3571 15.6426C34.7067 15.9922 35.1522 16.2303 35.6371 16.3268C36.1221 16.4233 36.6247 16.3738 37.0816 16.1845C37.5384 15.9953 37.9288 15.6749 38.2035 15.2638C38.4782 14.8526 38.6248 14.3693 38.6248 13.8748C38.6248 13.2118 38.3614 12.5759 37.8926 12.1071C37.4238 11.6382 36.7879 11.3748 36.1248 11.3748ZM45.7082 16.4165C45.6677 14.688 45.3439 12.9778 44.7498 11.354C44.2201 9.9647 43.3956 8.70667 42.3332 7.6665C41.3016 6.59864 40.0406 5.77937 38.6457 5.27067C37.0262 4.65851 35.3141 4.32736 33.5832 4.2915C31.3748 4.1665 30.6665 4.1665 24.9998 4.1665C19.3332 4.1665 18.6248 4.1665 16.4165 4.2915C14.6856 4.32736 12.9735 4.65851 11.354 5.27067C9.96166 5.78452 8.70178 6.60309 7.6665 7.6665C6.59864 8.69812 5.77937 9.95909 5.27067 11.354C4.65851 12.9735 4.32736 14.6856 4.2915 16.4165C4.1665 18.6248 4.1665 19.3332 4.1665 24.9998C4.1665 30.6665 4.1665 31.3748 4.2915 33.5832C4.32736 35.3141 4.65851 37.0262 5.27067 38.6457C5.77937 40.0406 6.59864 41.3016 7.6665 42.3332C8.70178 43.3966 9.96166 44.2152 11.354 44.729C12.9735 45.3412 14.6856 45.6723 16.4165 45.7082C18.6248 45.8332 19.3332 45.8332 24.9998 45.8332C30.6665 45.8332 31.3748 45.8332 33.5832 45.7082C35.3141 45.6723 37.0262 45.3412 38.6457 44.729C40.0406 44.2203 41.3016 43.401 42.3332 42.3332C43.4003 41.2969 44.2255 40.0377 44.7498 38.6457C45.3439 37.0219 45.6677 35.3117 45.7082 33.5832C45.7082 31.3748 45.8332 30.6665 45.8332 24.9998C45.8332 19.3332 45.8332 18.6248 45.7082 16.4165ZM41.9582 33.3332C41.943 34.6556 41.7035 35.9659 41.2498 37.2082C40.9172 38.1148 40.3829 38.9341 39.6873 39.604C39.0116 40.2926 38.1941 40.8257 37.2915 41.1665C36.0492 41.6202 34.7389 41.8597 33.4165 41.8748C31.3332 41.979 30.5623 41.9998 25.0832 41.9998C19.604 41.9998 18.8332 41.9998 16.7498 41.8748C15.3767 41.9006 14.0094 41.6891 12.7082 41.2498C11.8452 40.8917 11.0652 40.3598 10.4165 39.6873C9.72502 39.0181 9.19743 38.1982 8.87484 37.2915C8.36621 36.0314 8.08409 34.6914 8.0415 33.3332C8.0415 31.2498 7.9165 30.479 7.9165 24.9998C7.9165 19.5207 7.9165 18.7498 8.0415 16.6665C8.05084 15.3145 8.29765 13.9747 8.77067 12.7082C9.13744 11.8288 9.70039 11.045 10.4165 10.4165C11.0494 9.70019 11.8317 9.13129 12.7082 8.74984C13.9781 8.29159 15.3165 8.05209 16.6665 8.0415C18.7498 8.0415 19.5207 7.9165 24.9998 7.9165C30.479 7.9165 31.2498 7.9165 33.3332 8.0415C34.6556 8.05667 35.9659 8.29618 37.2082 8.74984C38.1549 9.1012 39.0046 9.67243 39.6873 10.4165C40.3701 11.0565 40.9035 11.8389 41.2498 12.7082C41.7129 13.9768 41.9525 15.316 41.9582 16.6665C42.0623 18.7498 42.0832 19.5207 42.0832 24.9998C42.0832 30.479 42.0623 31.2498 41.9582 33.3332ZM24.9998 14.3123C22.8869 14.3165 20.8227 14.9468 19.0679 16.1236C17.3131 17.3005 15.9465 18.9711 15.1407 20.9243C14.335 22.8776 14.1263 25.0258 14.5411 27.0976C14.9558 29.1694 15.9753 31.0718 17.4708 32.5644C18.9663 34.057 20.8707 35.0728 22.9433 35.4835C25.0159 35.8942 27.1637 35.6813 29.1154 34.8718C31.0671 34.0623 32.735 32.6924 33.9084 30.9353C35.0819 29.1782 35.7082 27.1127 35.7082 24.9998C35.7109 23.5938 35.4357 22.2011 34.8983 20.9018C34.3608 19.6026 33.5718 18.4224 32.5767 17.4291C31.5815 16.4359 30.3997 15.6492 29.0994 15.1143C27.7991 14.5794 26.4059 14.3068 24.9998 14.3123ZM24.9998 31.9373C23.6277 31.9373 22.2864 31.5305 21.1456 30.7682C20.0047 30.0059 19.1155 28.9224 18.5904 27.6547C18.0653 26.387 17.928 24.9921 18.1956 23.6464C18.4633 22.3007 19.1241 21.0645 20.0943 20.0943C21.0645 19.1241 22.3007 18.4633 23.6464 18.1956C24.9921 17.928 26.387 18.0653 27.6547 18.5904C28.9224 19.1155 30.0059 20.0047 30.7682 21.1456C31.5305 22.2864 31.9373 23.6277 31.9373 24.9998C31.9373 25.9109 31.7579 26.813 31.4093 27.6547C31.0606 28.4964 30.5496 29.2612 29.9054 29.9054C29.2612 30.5496 28.4964 31.0606 27.6547 31.4093C26.813 31.7579 25.9109 31.9373 24.9998 31.9373Z" fill="#F24E1E"/>
</svg>
