<svg width="50" height="50" viewBox="0 0 50 50" fill="none" xmlns="http://www.w3.org/2000/svg">
<circle cx="25" cy="25" r="25" fill="white" fill-opacity="0.65"/>
<path d="M11.875 30.625C11.875 30.1277 12.0725 29.6508 12.4242 29.2992C12.7758 28.9475 13.2527 28.75 13.75 28.75H17.5C17.9973 28.75 18.4742 28.9475 18.8258 29.2992C19.1775 29.6508 19.375 30.1277 19.375 30.625V36.25C19.375 36.7473 19.1775 37.2242 18.8258 37.5758C18.4742 37.9275 17.9973 38.125 17.5 38.125H13.75C13.2527 38.125 12.7758 37.9275 12.4242 37.5758C12.0725 37.2242 11.875 36.7473 11.875 36.25V30.625ZM21.25 23.125C21.25 22.6277 21.4475 22.1508 21.7992 21.7992C22.1508 21.4475 22.6277 21.25 23.125 21.25H26.875C27.3723 21.25 27.8492 21.4475 28.2008 21.7992C28.5525 22.1508 28.75 22.6277 28.75 23.125V36.25C28.75 36.7473 28.5525 37.2242 28.2008 37.5758C27.8492 37.9275 27.3723 38.125 26.875 38.125H23.125C22.6277 38.125 22.1508 37.9275 21.7992 37.5758C21.4475 37.2242 21.25 36.7473 21.25 36.25V23.125ZM30.625 13.75C30.625 13.2527 30.8225 12.7758 31.1742 12.4242C31.5258 12.0725 32.0027 11.875 32.5 11.875H36.25C36.7473 11.875 37.2242 12.0725 37.5758 12.4242C37.9275 12.7758 38.125 13.2527 38.125 13.75V36.25C38.125 36.7473 37.9275 37.2242 37.5758 37.5758C37.2242 37.9275 36.7473 38.125 36.25 38.125H32.5C32.0027 38.125 31.5258 37.9275 31.1742 37.5758C30.8225 37.2242 30.625 36.7473 30.625 36.25V13.75Z" fill="#9747FF"/>
</svg>
