<svg width="784" height="277" viewBox="0 0 784 277" fill="none" xmlns="http://www.w3.org/2000/svg">
<rect y="1" width="784" height="276" rx="20" fill="url(#paint0_linear_754_8)" fill-opacity="0.65"/>
<rect x="609" y="203" width="148" height="49" rx="10" fill="white"/>
<path d="M622.774 227.718C622.774 226.494 623.05 225.396 623.602 224.424C624.154 223.44 624.904 222.672 625.852 222.12C626.812 221.568 627.874 221.292 629.038 221.292C630.406 221.292 631.6 221.622 632.62 222.282C633.64 222.942 634.384 223.878 634.852 225.09H632.89C632.542 224.334 632.038 223.752 631.378 223.344C630.73 222.936 629.95 222.732 629.038 222.732C628.162 222.732 627.376 222.936 626.68 223.344C625.984 223.752 625.438 224.334 625.042 225.09C624.646 225.834 624.448 226.71 624.448 227.718C624.448 228.714 624.646 229.59 625.042 230.346C625.438 231.09 625.984 231.666 626.68 232.074C627.376 232.482 628.162 232.686 629.038 232.686C629.95 232.686 630.73 232.488 631.378 232.092C632.038 231.684 632.542 231.102 632.89 230.346H634.852C634.384 231.546 633.64 232.476 632.62 233.136C631.6 233.784 630.406 234.108 629.038 234.108C627.874 234.108 626.812 233.838 625.852 233.298C624.904 232.746 624.154 231.984 623.602 231.012C623.05 230.04 622.774 228.942 622.774 227.718ZM638.928 225.738C639.216 225.174 639.624 224.736 640.152 224.424C640.692 224.112 641.346 223.956 642.114 223.956V225.648H641.682C639.846 225.648 638.928 226.644 638.928 228.636V234H637.29V224.136H638.928V225.738ZM653.005 228.69C653.005 229.002 652.987 229.332 652.951 229.68H645.067C645.127 230.652 645.457 231.414 646.057 231.966C646.669 232.506 647.407 232.776 648.271 232.776C648.979 232.776 649.567 232.614 650.035 232.29C650.515 231.954 650.851 231.51 651.043 230.958H652.807C652.543 231.906 652.015 232.68 651.223 233.28C650.431 233.868 649.447 234.162 648.271 234.162C647.335 234.162 646.495 233.952 645.751 233.532C645.019 233.112 644.443 232.518 644.023 231.75C643.603 230.97 643.393 230.07 643.393 229.05C643.393 228.03 643.597 227.136 644.005 226.368C644.413 225.6 644.983 225.012 645.715 224.604C646.459 224.184 647.311 223.974 648.271 223.974C649.207 223.974 650.035 224.178 650.755 224.586C651.475 224.994 652.027 225.558 652.411 226.278C652.807 226.986 653.005 227.79 653.005 228.69ZM651.313 228.348C651.313 227.724 651.175 227.19 650.899 226.746C650.623 226.29 650.245 225.948 649.765 225.72C649.297 225.48 648.775 225.36 648.199 225.36C647.371 225.36 646.663 225.624 646.075 226.152C645.499 226.68 645.169 227.412 645.085 228.348H651.313ZM654.555 229.032C654.555 228.024 654.759 227.142 655.167 226.386C655.575 225.618 656.133 225.024 656.841 224.604C657.561 224.184 658.359 223.974 659.235 223.974C660.099 223.974 660.849 224.16 661.485 224.532C662.121 224.904 662.595 225.372 662.907 225.936V224.136H664.563V234H662.907V232.164C662.583 232.74 662.097 233.22 661.449 233.604C660.813 233.976 660.069 234.162 659.217 234.162C658.341 234.162 657.549 233.946 656.841 233.514C656.133 233.082 655.575 232.476 655.167 231.696C654.759 230.916 654.555 230.028 654.555 229.032ZM662.907 229.05C662.907 228.306 662.757 227.658 662.457 227.106C662.157 226.554 661.749 226.134 661.233 225.846C660.729 225.546 660.171 225.396 659.559 225.396C658.947 225.396 658.389 225.54 657.885 225.828C657.381 226.116 656.979 226.536 656.679 227.088C656.379 227.64 656.229 228.288 656.229 229.032C656.229 229.788 656.379 230.448 656.679 231.012C656.979 231.564 657.381 231.99 657.885 232.29C658.389 232.578 658.947 232.722 659.559 232.722C660.171 232.722 660.729 232.578 661.233 232.29C661.749 231.99 662.157 231.564 662.457 231.012C662.757 230.448 662.907 229.794 662.907 229.05ZM669.329 225.486V231.3C669.329 231.78 669.431 232.122 669.635 232.326C669.839 232.518 670.193 232.614 670.697 232.614H671.903V234H670.427C669.515 234 668.831 233.79 668.375 233.37C667.919 232.95 667.691 232.26 667.691 231.3V225.486H666.413V224.136H667.691V221.652H669.329V224.136H671.903V225.486H669.329ZM682.888 228.69C682.888 229.002 682.87 229.332 682.834 229.68H674.95C675.01 230.652 675.34 231.414 675.94 231.966C676.552 232.506 677.29 232.776 678.154 232.776C678.862 232.776 679.45 232.614 679.918 232.29C680.398 231.954 680.734 231.51 680.926 230.958H682.69C682.426 231.906 681.898 232.68 681.106 233.28C680.314 233.868 679.33 234.162 678.154 234.162C677.218 234.162 676.378 233.952 675.634 233.532C674.902 233.112 674.326 232.518 673.906 231.75C673.486 230.97 673.276 230.07 673.276 229.05C673.276 228.03 673.48 227.136 673.888 226.368C674.296 225.6 674.866 225.012 675.598 224.604C676.342 224.184 677.194 223.974 678.154 223.974C679.09 223.974 679.918 224.178 680.638 224.586C681.358 224.994 681.91 225.558 682.294 226.278C682.69 226.986 682.888 227.79 682.888 228.69ZM681.196 228.348C681.196 227.724 681.058 227.19 680.782 226.746C680.506 226.29 680.128 225.948 679.648 225.72C679.18 225.48 678.658 225.36 678.082 225.36C677.254 225.36 676.546 225.624 675.958 226.152C675.382 226.68 675.052 227.412 674.968 228.348H681.196ZM698.237 225.126C698.237 226.17 697.877 227.04 697.157 227.736C696.449 228.42 695.363 228.762 693.899 228.762H691.487V234H689.849V221.454H693.899C695.315 221.454 696.389 221.796 697.121 222.48C697.865 223.164 698.237 224.046 698.237 225.126ZM693.899 227.412C694.811 227.412 695.483 227.214 695.915 226.818C696.347 226.422 696.563 225.858 696.563 225.126C696.563 223.578 695.675 222.804 693.899 222.804H691.487V227.412H693.899ZM701.911 225.738C702.199 225.174 702.607 224.736 703.135 224.424C703.675 224.112 704.329 223.956 705.097 223.956V225.648H704.665C702.829 225.648 701.911 226.644 701.911 228.636V234H700.273V224.136H701.911V225.738ZM711.29 234.162C710.366 234.162 709.526 233.952 708.77 233.532C708.026 233.112 707.438 232.518 707.006 231.75C706.586 230.97 706.376 230.07 706.376 229.05C706.376 228.042 706.592 227.154 707.024 226.386C707.468 225.606 708.068 225.012 708.824 224.604C709.58 224.184 710.426 223.974 711.362 223.974C712.298 223.974 713.144 224.184 713.9 224.604C714.656 225.012 715.25 225.6 715.682 226.368C716.126 227.136 716.348 228.03 716.348 229.05C716.348 230.07 716.12 230.97 715.664 231.75C715.22 232.518 714.614 233.112 713.846 233.532C713.078 233.952 712.226 234.162 711.29 234.162ZM711.29 232.722C711.878 232.722 712.43 232.584 712.946 232.308C713.462 232.032 713.876 231.618 714.188 231.066C714.512 230.514 714.674 229.842 714.674 229.05C714.674 228.258 714.518 227.586 714.206 227.034C713.894 226.482 713.486 226.074 712.982 225.81C712.478 225.534 711.932 225.396 711.344 225.396C710.744 225.396 710.192 225.534 709.688 225.81C709.196 226.074 708.8 226.482 708.5 227.034C708.2 227.586 708.05 228.258 708.05 229.05C708.05 229.854 708.194 230.532 708.482 231.084C708.782 231.636 709.178 232.05 709.67 232.326C710.162 232.59 710.702 232.722 711.29 232.722ZM722.515 225.486H720.445V234H718.807V225.486H717.529V224.136H718.807V223.434C718.807 222.33 719.089 221.526 719.653 221.022C720.229 220.506 721.147 220.248 722.407 220.248V221.616C721.687 221.616 721.177 221.76 720.877 222.048C720.589 222.324 720.445 222.786 720.445 223.434V224.136H722.515V225.486ZM725.271 222.534C724.959 222.534 724.695 222.426 724.479 222.21C724.263 221.994 724.155 221.73 724.155 221.418C724.155 221.106 724.263 220.842 724.479 220.626C724.695 220.41 724.959 220.302 725.271 220.302C725.571 220.302 725.823 220.41 726.027 220.626C726.243 220.842 726.351 221.106 726.351 221.418C726.351 221.73 726.243 221.994 726.027 222.21C725.823 222.426 725.571 222.534 725.271 222.534ZM726.063 224.136V234H724.425V224.136H726.063ZM730.493 220.68V234H728.855V220.68H730.493ZM742.284 228.69C742.284 229.002 742.266 229.332 742.23 229.68H734.346C734.406 230.652 734.736 231.414 735.336 231.966C735.948 232.506 736.686 232.776 737.55 232.776C738.258 232.776 738.846 232.614 739.314 232.29C739.794 231.954 740.13 231.51 740.322 230.958H742.086C741.822 231.906 741.294 232.68 740.502 233.28C739.71 233.868 738.726 234.162 737.55 234.162C736.614 234.162 735.774 233.952 735.03 233.532C734.298 233.112 733.722 232.518 733.302 231.75C732.882 230.97 732.672 230.07 732.672 229.05C732.672 228.03 732.876 227.136 733.284 226.368C733.692 225.6 734.262 225.012 734.994 224.604C735.738 224.184 736.59 223.974 737.55 223.974C738.486 223.974 739.314 224.178 740.034 224.586C740.754 224.994 741.306 225.558 741.69 226.278C742.086 226.986 742.284 227.79 742.284 228.69ZM740.592 228.348C740.592 227.724 740.454 227.19 740.178 226.746C739.902 226.29 739.524 225.948 739.044 225.72C738.576 225.48 738.054 225.36 737.478 225.36C736.65 225.36 735.942 225.624 735.354 226.152C734.778 226.68 734.448 227.412 734.364 228.348H740.592Z" fill="#043249" fill-opacity="0.9"/>
<path d="M47.368 177.32V194H44.632V182.576L39.544 194H37.648L32.536 182.576V194H29.8V177.32H32.752L38.608 190.4L44.44 177.32H47.368ZM62.9401 180.776V194H60.2041V192.44C59.7721 192.984 59.2041 193.416 58.5001 193.736C57.8121 194.04 57.0761 194.192 56.2921 194.192C55.2521 194.192 54.3161 193.976 53.4841 193.544C52.6681 193.112 52.0201 192.472 51.5401 191.624C51.0761 190.776 50.8441 189.752 50.8441 188.552V180.776H53.5561V188.144C53.5561 189.328 53.8521 190.24 54.4441 190.88C55.0361 191.504 55.8441 191.816 56.8681 191.816C57.8921 191.816 58.7001 191.504 59.2921 190.88C59.9001 190.24 60.2041 189.328 60.2041 188.144V180.776H62.9401ZM69.286 176.24V194H66.55V176.24H69.286ZM76.0701 183.008V190.328C76.0701 190.824 76.1821 191.184 76.4061 191.408C76.6461 191.616 77.0461 191.72 77.6061 191.72H79.2861V194H77.1261C75.8941 194 74.9501 193.712 74.2941 193.136C73.6381 192.56 73.3101 191.624 73.3101 190.328V183.008H71.7501V180.776H73.3101V177.488H76.0701V180.776H79.2861V183.008H76.0701ZM83.1998 179.024C82.7038 179.024 82.2878 178.856 81.9518 178.52C81.6158 178.184 81.4478 177.768 81.4478 177.272C81.4478 176.776 81.6158 176.36 81.9518 176.024C82.2878 175.688 82.7038 175.52 83.1998 175.52C83.6798 175.52 84.0878 175.688 84.4238 176.024C84.7598 176.36 84.9278 176.776 84.9278 177.272C84.9278 177.768 84.7598 178.184 84.4238 178.52C84.0878 178.856 83.6798 179.024 83.1998 179.024ZM84.5438 180.776V194H81.8078V180.776H84.5438ZM90.8719 182.72C91.3359 182.112 91.9679 181.6 92.7679 181.184C93.5679 180.768 94.4719 180.56 95.4799 180.56C96.6319 180.56 97.6799 180.848 98.6239 181.424C99.5839 181.984 100.336 182.776 100.88 183.8C101.424 184.824 101.696 186 101.696 187.328C101.696 188.656 101.424 189.848 100.88 190.904C100.336 191.944 99.5839 192.76 98.6239 193.352C97.6799 193.928 96.6319 194.216 95.4799 194.216C94.4719 194.216 93.5759 194.016 92.7919 193.616C92.0079 193.2 91.3679 192.688 90.8719 192.08V200.288H88.1359V180.776H90.8719V182.72ZM98.9119 187.328C98.9119 186.416 98.7199 185.632 98.3359 184.976C97.9679 184.304 97.4719 183.8 96.8479 183.464C96.2399 183.112 95.5839 182.936 94.8799 182.936C94.1919 182.936 93.5359 183.112 92.9119 183.464C92.3039 183.816 91.8079 184.328 91.4239 185C91.0559 185.672 90.8719 186.464 90.8719 187.376C90.8719 188.288 91.0559 189.088 91.4239 189.776C91.8079 190.448 92.3039 190.96 92.9119 191.312C93.5359 191.664 94.1919 191.84 94.8799 191.84C95.5839 191.84 96.2399 191.664 96.8479 191.312C97.4719 190.944 97.9679 190.416 98.3359 189.728C98.7199 189.04 98.9119 188.24 98.9119 187.328ZM107.138 176.24V194H104.402V176.24H107.138ZM122.85 187.064C122.85 187.56 122.818 188.008 122.754 188.408H112.65C112.73 189.464 113.122 190.312 113.826 190.952C114.53 191.592 115.394 191.912 116.418 191.912C117.89 191.912 118.93 191.296 119.538 190.064H122.49C122.09 191.28 121.362 192.28 120.306 193.064C119.266 193.832 117.97 194.216 116.418 194.216C115.154 194.216 114.018 193.936 113.01 193.376C112.018 192.8 111.234 192 110.658 190.976C110.098 189.936 109.818 188.736 109.818 187.376C109.818 186.016 110.09 184.824 110.634 183.8C111.194 182.76 111.97 181.96 112.962 181.4C113.97 180.84 115.122 180.56 116.418 180.56C117.666 180.56 118.778 180.832 119.754 181.376C120.73 181.92 121.49 182.688 122.034 183.68C122.578 184.656 122.85 185.784 122.85 187.064ZM119.994 186.2C119.978 185.192 119.618 184.384 118.914 183.776C118.21 183.168 117.338 182.864 116.298 182.864C115.354 182.864 114.546 183.168 113.874 183.776C113.202 184.368 112.802 185.176 112.674 186.2H119.994ZM134.513 182.72C134.977 182.112 135.609 181.6 136.409 181.184C137.209 180.768 138.113 180.56 139.121 180.56C140.273 180.56 141.321 180.848 142.265 181.424C143.225 181.984 143.977 182.776 144.521 183.8C145.065 184.824 145.337 186 145.337 187.328C145.337 188.656 145.065 189.848 144.521 190.904C143.977 191.944 143.225 192.76 142.265 193.352C141.321 193.928 140.273 194.216 139.121 194.216C138.113 194.216 137.217 194.016 136.433 193.616C135.649 193.2 135.009 192.688 134.513 192.08V200.288H131.777V180.776H134.513V182.72ZM142.553 187.328C142.553 186.416 142.361 185.632 141.977 184.976C141.609 184.304 141.113 183.8 140.489 183.464C139.881 183.112 139.225 182.936 138.521 182.936C137.833 182.936 137.177 183.112 136.553 183.464C135.945 183.816 135.449 184.328 135.065 185C134.697 185.672 134.513 186.464 134.513 187.376C134.513 188.288 134.697 189.088 135.065 189.776C135.449 190.448 135.945 190.96 136.553 191.312C137.177 191.664 137.833 191.84 138.521 191.84C139.225 191.84 139.881 191.664 140.489 191.312C141.113 190.944 141.609 190.416 141.977 189.728C142.361 189.04 142.553 188.24 142.553 187.328ZM150.778 182.696C151.178 182.024 151.706 181.504 152.362 181.136C153.034 180.752 153.826 180.56 154.738 180.56V183.392H154.042C152.97 183.392 152.154 183.664 151.594 184.208C151.05 184.752 150.778 185.696 150.778 187.04V194H148.042V180.776H150.778V182.696ZM162.989 194.216C161.741 194.216 160.613 193.936 159.605 193.376C158.597 192.8 157.805 192 157.229 190.976C156.653 189.936 156.365 188.736 156.365 187.376C156.365 186.032 156.661 184.84 157.253 183.8C157.845 182.76 158.653 181.96 159.677 181.4C160.701 180.84 161.845 180.56 163.109 180.56C164.373 180.56 165.517 180.84 166.541 181.4C167.565 181.96 168.373 182.76 168.965 183.8C169.557 184.84 169.853 186.032 169.853 187.376C169.853 188.72 169.549 189.912 168.941 190.952C168.333 191.992 167.501 192.8 166.445 193.376C165.405 193.936 164.253 194.216 162.989 194.216ZM162.989 191.84C163.693 191.84 164.349 191.672 164.957 191.336C165.581 191 166.085 190.496 166.469 189.824C166.853 189.152 167.045 188.336 167.045 187.376C167.045 186.416 166.861 185.608 166.493 184.952C166.125 184.28 165.637 183.776 165.029 183.44C164.421 183.104 163.765 182.936 163.061 182.936C162.357 182.936 161.701 183.104 161.093 183.44C160.501 183.776 160.029 184.28 159.677 184.952C159.325 185.608 159.149 186.416 159.149 187.376C159.149 188.8 159.509 189.904 160.229 190.688C160.965 191.456 161.885 191.84 162.989 191.84ZM178.102 183.008H175.654V194H172.894V183.008H171.334V180.776H172.894V179.84C172.894 178.32 173.294 177.216 174.094 176.528C174.91 175.824 176.182 175.472 177.91 175.472V177.752C177.078 177.752 176.494 177.912 176.158 178.232C175.822 178.536 175.654 179.072 175.654 179.84V180.776H178.102V183.008ZM181.919 179.024C181.423 179.024 181.007 178.856 180.671 178.52C180.335 178.184 180.167 177.768 180.167 177.272C180.167 176.776 180.335 176.36 180.671 176.024C181.007 175.688 181.423 175.52 181.919 175.52C182.399 175.52 182.807 175.688 183.143 176.024C183.479 176.36 183.647 176.776 183.647 177.272C183.647 177.768 183.479 178.184 183.143 178.52C182.807 178.856 182.399 179.024 181.919 179.024ZM183.263 180.776V194H180.527V180.776H183.263ZM189.591 176.24V194H186.855V176.24H189.591ZM205.303 187.064C205.303 187.56 205.271 188.008 205.207 188.408H195.103C195.183 189.464 195.575 190.312 196.279 190.952C196.983 191.592 197.847 191.912 198.871 191.912C200.343 191.912 201.383 191.296 201.991 190.064H204.943C204.543 191.28 203.815 192.28 202.759 193.064C201.719 193.832 200.423 194.216 198.871 194.216C197.607 194.216 196.471 193.936 195.463 193.376C194.471 192.8 193.687 192 193.111 190.976C192.551 189.936 192.271 188.736 192.271 187.376C192.271 186.016 192.543 184.824 193.087 183.8C193.647 182.76 194.423 181.96 195.415 181.4C196.423 180.84 197.575 180.56 198.871 180.56C200.119 180.56 201.231 180.832 202.207 181.376C203.183 181.92 203.943 182.688 204.487 183.68C205.031 184.656 205.303 185.784 205.303 187.064ZM202.447 186.2C202.431 185.192 202.071 184.384 201.367 183.776C200.663 183.168 199.791 182.864 198.751 182.864C197.807 182.864 196.999 183.168 196.327 183.776C195.655 184.368 195.255 185.176 195.127 186.2H202.447ZM215.622 179.024C215.126 179.024 214.71 178.856 214.374 178.52C214.038 178.184 213.87 177.768 213.87 177.272C213.87 176.776 214.038 176.36 214.374 176.024C214.71 175.688 215.126 175.52 215.622 175.52C216.102 175.52 216.51 175.688 216.846 176.024C217.182 176.36 217.35 176.776 217.35 177.272C217.35 177.768 217.182 178.184 216.846 178.52C216.51 178.856 216.102 179.024 215.622 179.024ZM216.966 180.776V194H214.23V180.776H216.966ZM227.23 180.56C228.27 180.56 229.198 180.776 230.014 181.208C230.846 181.64 231.494 182.28 231.958 183.128C232.422 183.976 232.654 185 232.654 186.2V194H229.942V186.608C229.942 185.424 229.646 184.52 229.054 183.896C228.462 183.256 227.654 182.936 226.63 182.936C225.606 182.936 224.79 183.256 224.182 183.896C223.59 184.52 223.294 185.424 223.294 186.608V194H220.558V180.776H223.294V182.288C223.742 181.744 224.31 181.32 224.998 181.016C225.702 180.712 226.446 180.56 227.23 180.56ZM241.466 187.328C241.466 186 241.738 184.824 242.282 183.8C242.842 182.776 243.594 181.984 244.538 181.424C245.498 180.848 246.554 180.56 247.706 180.56C248.746 180.56 249.65 180.768 250.418 181.184C251.202 181.584 251.826 182.088 252.29 182.696V180.776H255.05V194H252.29V192.032C251.826 192.656 251.194 193.176 250.394 193.592C249.594 194.008 248.682 194.216 247.658 194.216C246.522 194.216 245.482 193.928 244.538 193.352C243.594 192.76 242.842 191.944 242.282 190.904C241.738 189.848 241.466 188.656 241.466 187.328ZM252.29 187.376C252.29 186.464 252.098 185.672 251.714 185C251.346 184.328 250.858 183.816 250.25 183.464C249.642 183.112 248.986 182.936 248.282 182.936C247.578 182.936 246.922 183.112 246.314 183.464C245.706 183.8 245.21 184.304 244.826 184.976C244.458 185.632 244.274 186.416 244.274 187.328C244.274 188.24 244.458 189.04 244.826 189.728C245.21 190.416 245.706 190.944 246.314 191.312C246.938 191.664 247.594 191.84 248.282 191.84C248.986 191.84 249.642 191.664 250.25 191.312C250.858 190.96 251.346 190.448 251.714 189.776C252.098 189.088 252.29 188.288 252.29 187.376ZM269.678 194.216C268.638 194.216 267.702 194.032 266.87 193.664C266.054 193.28 265.406 192.768 264.926 192.128C264.446 191.472 264.19 190.744 264.158 189.944H266.99C267.038 190.504 267.302 190.976 267.782 191.36C268.278 191.728 268.894 191.912 269.63 191.912C270.398 191.912 270.99 191.768 271.406 191.48C271.838 191.176 272.054 190.792 272.054 190.328C272.054 189.832 271.814 189.464 271.334 189.224C270.87 188.984 270.126 188.72 269.102 188.432C268.11 188.16 267.302 187.896 266.678 187.64C266.054 187.384 265.51 186.992 265.046 186.464C264.598 185.936 264.374 185.24 264.374 184.376C264.374 183.672 264.582 183.032 264.998 182.456C265.414 181.864 266.006 181.4 266.774 181.064C267.558 180.728 268.454 180.56 269.462 180.56C270.966 180.56 272.174 180.944 273.086 181.712C274.014 182.464 274.51 183.496 274.574 184.808H271.838C271.79 184.216 271.55 183.744 271.118 183.392C270.686 183.04 270.102 182.864 269.366 182.864C268.646 182.864 268.094 183 267.71 183.272C267.326 183.544 267.134 183.904 267.134 184.352C267.134 184.704 267.262 185 267.518 185.24C267.774 185.48 268.086 185.672 268.454 185.816C268.822 185.944 269.366 186.112 270.086 186.32C271.046 186.576 271.83 186.84 272.438 187.112C273.062 187.368 273.598 187.752 274.046 188.264C274.494 188.776 274.726 189.456 274.742 190.304C274.742 191.056 274.534 191.728 274.118 192.32C273.702 192.912 273.11 193.376 272.342 193.712C271.59 194.048 270.702 194.216 269.678 194.216ZM279.09 179.024C278.594 179.024 278.178 178.856 277.842 178.52C277.506 178.184 277.338 177.768 277.338 177.272C277.338 176.776 277.506 176.36 277.842 176.024C278.178 175.688 278.594 175.52 279.09 175.52C279.57 175.52 279.978 175.688 280.314 176.024C280.65 176.36 280.818 176.776 280.818 177.272C280.818 177.768 280.65 178.184 280.314 178.52C279.978 178.856 279.57 179.024 279.09 179.024ZM280.434 180.776V194H277.698V180.776H280.434ZM290.699 180.56C291.739 180.56 292.667 180.776 293.483 181.208C294.315 181.64 294.963 182.28 295.427 183.128C295.891 183.976 296.123 185 296.123 186.2V194H293.411V186.608C293.411 185.424 293.115 184.52 292.523 183.896C291.931 183.256 291.123 182.936 290.099 182.936C289.075 182.936 288.259 183.256 287.651 183.896C287.059 184.52 286.763 185.424 286.763 186.608V194H284.027V180.776H286.763V182.288C287.211 181.744 287.779 181.32 288.467 181.016C289.171 180.712 289.915 180.56 290.699 180.56ZM304.941 180.56C305.965 180.56 306.869 180.768 307.653 181.184C308.453 181.584 309.077 182.088 309.525 182.696V180.776H312.285V194.216C312.285 195.432 312.029 196.512 311.517 197.456C311.005 198.416 310.261 199.168 309.285 199.712C308.325 200.256 307.173 200.528 305.829 200.528C304.037 200.528 302.549 200.104 301.365 199.256C300.181 198.424 299.509 197.288 299.349 195.848H302.061C302.269 196.536 302.709 197.088 303.381 197.504C304.069 197.936 304.885 198.152 305.829 198.152C306.933 198.152 307.821 197.816 308.493 197.144C309.181 196.472 309.525 195.496 309.525 194.216V192.008C309.061 192.632 308.429 193.16 307.629 193.592C306.845 194.008 305.949 194.216 304.941 194.216C303.789 194.216 302.733 193.928 301.773 193.352C300.829 192.76 300.077 191.944 299.517 190.904C298.973 189.848 298.701 188.656 298.701 187.328C298.701 186 298.973 184.824 299.517 183.8C300.077 182.776 300.829 181.984 301.773 181.424C302.733 180.848 303.789 180.56 304.941 180.56ZM309.525 187.376C309.525 186.464 309.333 185.672 308.949 185C308.581 184.328 308.093 183.816 307.485 183.464C306.877 183.112 306.221 182.936 305.517 182.936C304.813 182.936 304.157 183.112 303.549 183.464C302.941 183.8 302.445 184.304 302.061 184.976C301.693 185.632 301.509 186.416 301.509 187.328C301.509 188.24 301.693 189.04 302.061 189.728C302.445 190.416 302.941 190.944 303.549 191.312C304.173 191.664 304.829 191.84 305.517 191.84C306.221 191.84 306.877 191.664 307.485 191.312C308.093 190.96 308.581 190.448 308.949 189.776C309.333 189.088 309.525 188.288 309.525 187.376ZM318.614 176.24V194H315.878V176.24H318.614ZM334.326 187.064C334.326 187.56 334.294 188.008 334.23 188.408H324.126C324.206 189.464 324.598 190.312 325.302 190.952C326.006 191.592 326.87 191.912 327.894 191.912C329.366 191.912 330.406 191.296 331.014 190.064H333.966C333.566 191.28 332.838 192.28 331.782 193.064C330.742 193.832 329.446 194.216 327.894 194.216C326.63 194.216 325.494 193.936 324.486 193.376C323.494 192.8 322.71 192 322.134 190.976C321.574 189.936 321.294 188.736 321.294 187.376C321.294 186.016 321.566 184.824 322.11 183.8C322.67 182.76 323.446 181.96 324.438 181.4C325.446 180.84 326.598 180.56 327.894 180.56C329.142 180.56 330.254 180.832 331.23 181.376C332.206 181.92 332.966 182.688 333.51 183.68C334.054 184.656 334.326 185.784 334.326 187.064ZM331.47 186.2C331.454 185.192 331.094 184.384 330.39 183.776C329.686 183.168 328.814 182.864 327.774 182.864C326.83 182.864 326.022 183.168 325.35 183.776C324.678 184.368 324.278 185.176 324.15 186.2H331.47ZM342.341 187.328C342.341 186 342.613 184.824 343.157 183.8C343.717 182.776 344.469 181.984 345.413 181.424C346.373 180.848 347.429 180.56 348.581 180.56C349.621 180.56 350.525 180.768 351.293 181.184C352.077 181.584 352.701 182.088 353.165 182.696V180.776H355.925V194H353.165V192.032C352.701 192.656 352.069 193.176 351.269 193.592C350.469 194.008 349.557 194.216 348.533 194.216C347.397 194.216 346.357 193.928 345.413 193.352C344.469 192.76 343.717 191.944 343.157 190.904C342.613 189.848 342.341 188.656 342.341 187.328ZM353.165 187.376C353.165 186.464 352.973 185.672 352.589 185C352.221 184.328 351.733 183.816 351.125 183.464C350.517 183.112 349.861 182.936 349.157 182.936C348.453 182.936 347.797 183.112 347.189 183.464C346.581 183.8 346.085 184.304 345.701 184.976C345.333 185.632 345.149 186.416 345.149 187.328C345.149 188.24 345.333 189.04 345.701 189.728C346.085 190.416 346.581 190.944 347.189 191.312C347.813 191.664 348.469 191.84 349.157 191.84C349.861 191.84 350.517 191.664 351.125 191.312C351.733 190.96 352.221 190.448 352.589 189.776C352.973 189.088 353.165 188.288 353.165 187.376ZM362.255 182.72C362.719 182.112 363.351 181.6 364.151 181.184C364.951 180.768 365.855 180.56 366.863 180.56C368.015 180.56 369.063 180.848 370.007 181.424C370.967 181.984 371.719 182.776 372.263 183.8C372.807 184.824 373.079 186 373.079 187.328C373.079 188.656 372.807 189.848 372.263 190.904C371.719 191.944 370.967 192.76 370.007 193.352C369.063 193.928 368.015 194.216 366.863 194.216C365.855 194.216 364.959 194.016 364.175 193.616C363.391 193.2 362.751 192.688 362.255 192.08V200.288H359.519V180.776H362.255V182.72ZM370.295 187.328C370.295 186.416 370.103 185.632 369.719 184.976C369.351 184.304 368.855 183.8 368.231 183.464C367.623 183.112 366.967 182.936 366.263 182.936C365.575 182.936 364.919 183.112 364.295 183.464C363.687 183.816 363.191 184.328 362.807 185C362.439 185.672 362.255 186.464 362.255 187.376C362.255 188.288 362.439 189.088 362.807 189.776C363.191 190.448 363.687 190.96 364.295 191.312C364.919 191.664 365.575 191.84 366.263 191.84C366.967 191.84 367.623 191.664 368.231 191.312C368.855 190.944 369.351 190.416 369.719 189.728C370.103 189.04 370.295 188.24 370.295 187.328ZM378.52 182.72C378.984 182.112 379.616 181.6 380.416 181.184C381.216 180.768 382.12 180.56 383.128 180.56C384.28 180.56 385.328 180.848 386.272 181.424C387.232 181.984 387.984 182.776 388.528 183.8C389.072 184.824 389.344 186 389.344 187.328C389.344 188.656 389.072 189.848 388.528 190.904C387.984 191.944 387.232 192.76 386.272 193.352C385.328 193.928 384.28 194.216 383.128 194.216C382.12 194.216 381.224 194.016 380.44 193.616C379.656 193.2 379.016 192.688 378.52 192.08V200.288H375.784V180.776H378.52V182.72ZM386.56 187.328C386.56 186.416 386.368 185.632 385.984 184.976C385.616 184.304 385.12 183.8 384.496 183.464C383.888 183.112 383.232 182.936 382.528 182.936C381.84 182.936 381.184 183.112 380.56 183.464C379.952 183.816 379.456 184.328 379.072 185C378.704 185.672 378.52 186.464 378.52 187.376C378.52 188.288 378.704 189.088 379.072 189.776C379.456 190.448 379.952 190.96 380.56 191.312C381.184 191.664 381.84 191.84 382.528 191.84C383.232 191.84 383.888 191.664 384.496 191.312C385.12 190.944 385.616 190.416 385.984 189.728C386.368 189.04 386.56 188.24 386.56 187.328Z" fill="white"/>
<path d="M39.34 221.49V234H37.288V228.528H31.402V234H29.35V221.49H31.402V226.854H37.288V221.49H39.34ZM41.3574 228.996C41.3574 228 41.5614 227.118 41.9694 226.35C42.3894 225.582 42.9534 224.988 43.6614 224.568C44.3814 224.136 45.1734 223.92 46.0374 223.92C46.8174 223.92 47.4954 224.076 48.0714 224.388C48.6594 224.688 49.1274 225.066 49.4754 225.522V224.082H51.5454V234H49.4754V232.524C49.1274 232.992 48.6534 233.382 48.0534 233.694C47.4534 234.006 46.7694 234.162 46.0014 234.162C45.1494 234.162 44.3694 233.946 43.6614 233.514C42.9534 233.07 42.3894 232.458 41.9694 231.678C41.5614 230.886 41.3574 229.992 41.3574 228.996ZM49.4754 229.032C49.4754 228.348 49.3314 227.754 49.0434 227.25C48.7674 226.746 48.4014 226.362 47.9454 226.098C47.4894 225.834 46.9974 225.702 46.4694 225.702C45.9414 225.702 45.4494 225.834 44.9934 226.098C44.5374 226.35 44.1654 226.728 43.8774 227.232C43.6014 227.724 43.4634 228.312 43.4634 228.996C43.4634 229.68 43.6014 230.28 43.8774 230.796C44.1654 231.312 44.5374 231.708 44.9934 231.984C45.4614 232.248 45.9534 232.38 46.4694 232.38C46.9974 232.38 47.4894 232.248 47.9454 231.984C48.4014 231.72 48.7674 231.336 49.0434 230.832C49.3314 230.316 49.4754 229.716 49.4754 229.032ZM58.0746 232.164L60.8826 224.082H63.0606L59.2806 234H56.8326L53.0706 224.082H55.2666L58.0746 232.164ZM73.7017 228.798C73.7017 229.17 73.6777 229.506 73.6297 229.806H66.0517C66.1117 230.598 66.4057 231.234 66.9337 231.714C67.4617 232.194 68.1097 232.434 68.8777 232.434C69.9817 232.434 70.7617 231.972 71.2177 231.048H73.4317C73.1317 231.96 72.5857 232.71 71.7937 233.298C71.0137 233.874 70.0417 234.162 68.8777 234.162C67.9297 234.162 67.0777 233.952 66.3217 233.532C65.5777 233.1 64.9897 232.5 64.5577 231.732C64.1377 230.952 63.9277 230.052 63.9277 229.032C63.9277 228.012 64.1317 227.118 64.5397 226.35C64.9597 225.57 65.5417 224.97 66.2857 224.55C67.0417 224.13 67.9057 223.92 68.8777 223.92C69.8137 223.92 70.6477 224.124 71.3797 224.532C72.1117 224.94 72.6817 225.516 73.0897 226.26C73.4977 226.992 73.7017 227.838 73.7017 228.798ZM71.5597 228.15C71.5477 227.394 71.2777 226.788 70.7497 226.332C70.2217 225.876 69.5677 225.648 68.7877 225.648C68.0797 225.648 67.4737 225.876 66.9697 226.332C66.4657 226.776 66.1657 227.382 66.0697 228.15H71.5597ZM89.3249 224.082L83.2409 238.662H81.1169L83.1329 233.838L79.2269 224.082H81.5129L84.3029 231.642L87.2009 224.082H89.3249ZM95.1754 234.162C94.2394 234.162 93.3934 233.952 92.6374 233.532C91.8814 233.1 91.2874 232.5 90.8554 231.732C90.4234 230.952 90.2074 230.052 90.2074 229.032C90.2074 228.024 90.4294 227.13 90.8734 226.35C91.3174 225.57 91.9234 224.97 92.6914 224.55C93.4594 224.13 94.3174 223.92 95.2654 223.92C96.2134 223.92 97.0714 224.13 97.8394 224.55C98.6074 224.97 99.2134 225.57 99.6574 226.35C100.101 227.13 100.323 228.024 100.323 229.032C100.323 230.04 100.095 230.934 99.6394 231.714C99.1834 232.494 98.5594 233.1 97.7674 233.532C96.9874 233.952 96.1234 234.162 95.1754 234.162ZM95.1754 232.38C95.7034 232.38 96.1954 232.254 96.6514 232.002C97.1194 231.75 97.4974 231.372 97.7854 230.868C98.0734 230.364 98.2174 229.752 98.2174 229.032C98.2174 228.312 98.0794 227.706 97.8034 227.214C97.5274 226.71 97.1614 226.332 96.7054 226.08C96.2494 225.828 95.7574 225.702 95.2294 225.702C94.7014 225.702 94.2094 225.828 93.7534 226.08C93.3094 226.332 92.9554 226.71 92.6914 227.214C92.4274 227.706 92.2954 228.312 92.2954 229.032C92.2954 230.1 92.5654 230.928 93.1054 231.516C93.6574 232.092 94.3474 232.38 95.1754 232.38ZM111.334 224.082V234H109.282V232.83C108.958 233.238 108.532 233.562 108.004 233.802C107.488 234.03 106.936 234.144 106.348 234.144C105.568 234.144 104.866 233.982 104.242 233.658C103.63 233.334 103.144 232.854 102.784 232.218C102.436 231.582 102.262 230.814 102.262 229.914V224.082H104.296V229.608C104.296 230.496 104.518 231.18 104.962 231.66C105.406 232.128 106.012 232.362 106.78 232.362C107.548 232.362 108.154 232.128 108.598 231.66C109.054 231.18 109.282 230.496 109.282 229.608V224.082H111.334ZM127.807 228.798C127.807 229.17 127.783 229.506 127.735 229.806H120.157C120.217 230.598 120.511 231.234 121.039 231.714C121.567 232.194 122.215 232.434 122.983 232.434C124.087 232.434 124.867 231.972 125.323 231.048H127.537C127.237 231.96 126.691 232.71 125.899 233.298C125.119 233.874 124.147 234.162 122.983 234.162C122.035 234.162 121.183 233.952 120.427 233.532C119.683 233.1 119.095 232.5 118.663 231.732C118.243 230.952 118.033 230.052 118.033 229.032C118.033 228.012 118.237 227.118 118.645 226.35C119.065 225.57 119.647 224.97 120.391 224.55C121.147 224.13 122.011 223.92 122.983 223.92C123.919 223.92 124.753 224.124 125.485 224.532C126.217 224.94 126.787 225.516 127.195 226.26C127.603 226.992 127.807 227.838 127.807 228.798ZM125.665 228.15C125.653 227.394 125.383 226.788 124.855 226.332C124.327 225.876 123.673 225.648 122.893 225.648C122.185 225.648 121.579 225.876 121.075 226.332C120.571 226.776 120.271 227.382 120.175 228.15H125.665ZM134.075 228.978L137.279 234H134.957L132.815 230.634L130.799 234H128.657L131.861 229.122L128.657 224.082H130.979L133.121 227.448L135.137 224.082H137.279L134.075 228.978ZM140.861 225.54C141.209 225.084 141.683 224.7 142.283 224.388C142.883 224.076 143.561 223.92 144.317 223.92C145.181 223.92 145.967 224.136 146.675 224.568C147.395 224.988 147.959 225.582 148.367 226.35C148.775 227.118 148.979 228 148.979 228.996C148.979 229.992 148.775 230.886 148.367 231.678C147.959 232.458 147.395 233.07 146.675 233.514C145.967 233.946 145.181 234.162 144.317 234.162C143.561 234.162 142.889 234.012 142.301 233.712C141.713 233.4 141.233 233.016 140.861 232.56V238.716H138.809V224.082H140.861V225.54ZM146.891 228.996C146.891 228.312 146.747 227.724 146.459 227.232C146.183 226.728 145.811 226.35 145.343 226.098C144.887 225.834 144.395 225.702 143.867 225.702C143.351 225.702 142.859 225.834 142.391 226.098C141.935 226.362 141.563 226.746 141.275 227.25C140.999 227.754 140.861 228.348 140.861 229.032C140.861 229.716 140.999 230.316 141.275 230.832C141.563 231.336 141.935 231.72 142.391 231.984C142.859 232.248 143.351 232.38 143.867 232.38C144.395 232.38 144.887 232.248 145.343 231.984C145.811 231.708 146.183 231.312 146.459 230.796C146.747 230.28 146.891 229.68 146.891 228.996ZM160.098 228.798C160.098 229.17 160.074 229.506 160.026 229.806H152.448C152.508 230.598 152.802 231.234 153.33 231.714C153.858 232.194 154.506 232.434 155.274 232.434C156.378 232.434 157.158 231.972 157.614 231.048H159.828C159.528 231.96 158.982 232.71 158.19 233.298C157.41 233.874 156.438 234.162 155.274 234.162C154.326 234.162 153.474 233.952 152.718 233.532C151.974 233.1 151.386 232.5 150.954 231.732C150.534 230.952 150.324 230.052 150.324 229.032C150.324 228.012 150.528 227.118 150.936 226.35C151.356 225.57 151.938 224.97 152.682 224.55C153.438 224.13 154.302 223.92 155.274 223.92C156.21 223.92 157.044 224.124 157.776 224.532C158.508 224.94 159.078 225.516 159.486 226.26C159.894 226.992 160.098 227.838 160.098 228.798ZM157.956 228.15C157.944 227.394 157.674 226.788 157.146 226.332C156.618 225.876 155.964 225.648 155.184 225.648C154.476 225.648 153.87 225.876 153.366 226.332C152.862 226.776 152.562 227.382 152.466 228.15H157.956ZM164.17 225.522C164.47 225.018 164.866 224.628 165.358 224.352C165.862 224.064 166.456 223.92 167.14 223.92V226.044H166.618C165.814 226.044 165.202 226.248 164.782 226.656C164.374 227.064 164.17 227.772 164.17 228.78V234H162.118V224.082H164.17V225.522ZM170.07 222.768C169.698 222.768 169.386 222.642 169.134 222.39C168.882 222.138 168.756 221.826 168.756 221.454C168.756 221.082 168.882 220.77 169.134 220.518C169.386 220.266 169.698 220.14 170.07 220.14C170.43 220.14 170.736 220.266 170.988 220.518C171.24 220.77 171.366 221.082 171.366 221.454C171.366 221.826 171.24 222.138 170.988 222.39C170.736 222.642 170.43 222.768 170.07 222.768ZM171.078 224.082V234H169.026V224.082H171.078ZM182.862 228.798C182.862 229.17 182.838 229.506 182.79 229.806H175.212C175.272 230.598 175.566 231.234 176.094 231.714C176.622 232.194 177.27 232.434 178.038 232.434C179.142 232.434 179.922 231.972 180.378 231.048H182.592C182.292 231.96 181.746 232.71 180.954 233.298C180.174 233.874 179.202 234.162 178.038 234.162C177.09 234.162 176.238 233.952 175.482 233.532C174.738 233.1 174.15 232.5 173.718 231.732C173.298 230.952 173.088 230.052 173.088 229.032C173.088 228.012 173.292 227.118 173.7 226.35C174.12 225.57 174.702 224.97 175.446 224.55C176.202 224.13 177.066 223.92 178.038 223.92C178.974 223.92 179.808 224.124 180.54 224.532C181.272 224.94 181.842 225.516 182.25 226.26C182.658 226.992 182.862 227.838 182.862 228.798ZM180.72 228.15C180.708 227.394 180.438 226.788 179.91 226.332C179.382 225.876 178.728 225.648 177.948 225.648C177.24 225.648 176.634 225.876 176.13 226.332C175.626 226.776 175.326 227.382 175.23 228.15H180.72ZM189.885 223.92C190.665 223.92 191.361 224.082 191.973 224.406C192.597 224.73 193.083 225.21 193.431 225.846C193.779 226.482 193.953 227.25 193.953 228.15V234H191.919V228.456C191.919 227.568 191.697 226.89 191.253 226.422C190.809 225.942 190.203 225.702 189.435 225.702C188.667 225.702 188.055 225.942 187.599 226.422C187.155 226.89 186.933 227.568 186.933 228.456V234H184.881V224.082H186.933V225.216C187.269 224.808 187.695 224.49 188.211 224.262C188.739 224.034 189.297 223.92 189.885 223.92ZM195.887 229.032C195.887 228.012 196.091 227.118 196.499 226.35C196.919 225.57 197.495 224.97 198.227 224.55C198.959 224.13 199.799 223.92 200.747 223.92C201.947 223.92 202.937 224.208 203.717 224.784C204.509 225.348 205.043 226.158 205.319 227.214H203.105C202.925 226.722 202.637 226.338 202.241 226.062C201.845 225.786 201.347 225.648 200.747 225.648C199.907 225.648 199.235 225.948 198.731 226.548C198.239 227.136 197.993 227.964 197.993 229.032C197.993 230.1 198.239 230.934 198.731 231.534C199.235 232.134 199.907 232.434 200.747 232.434C201.935 232.434 202.721 231.912 203.105 230.868H205.319C205.031 231.876 204.491 232.68 203.699 233.28C202.907 233.868 201.923 234.162 200.747 234.162C199.799 234.162 198.959 233.952 198.227 233.532C197.495 233.1 196.919 232.5 196.499 231.732C196.091 230.952 195.887 230.052 195.887 229.032ZM216.454 228.798C216.454 229.17 216.43 229.506 216.382 229.806H208.804C208.864 230.598 209.158 231.234 209.686 231.714C210.214 232.194 210.862 232.434 211.63 232.434C212.734 232.434 213.514 231.972 213.97 231.048H216.184C215.884 231.96 215.338 232.71 214.546 233.298C213.766 233.874 212.794 234.162 211.63 234.162C210.682 234.162 209.83 233.952 209.074 233.532C208.33 233.1 207.742 232.5 207.31 231.732C206.89 230.952 206.68 230.052 206.68 229.032C206.68 228.012 206.884 227.118 207.292 226.35C207.712 225.57 208.294 224.97 209.038 224.55C209.794 224.13 210.658 223.92 211.63 223.92C212.566 223.92 213.4 224.124 214.132 224.532C214.864 224.94 215.434 225.516 215.842 226.26C216.25 226.992 216.454 227.838 216.454 228.798ZM214.312 228.15C214.3 227.394 214.03 226.788 213.502 226.332C212.974 225.876 212.32 225.648 211.54 225.648C210.832 225.648 210.226 225.876 209.722 226.332C209.218 226.776 208.918 227.382 208.822 228.15H214.312ZM225.543 225.756V231.246C225.543 231.618 225.627 231.888 225.795 232.056C225.975 232.212 226.275 232.29 226.695 232.29H227.955V234H226.335C225.411 234 224.703 233.784 224.211 233.352C223.719 232.92 223.473 232.218 223.473 231.246V225.756H222.303V224.082H223.473V221.616H225.543V224.082H227.955V225.756H225.543ZM234.976 223.92C235.732 223.92 236.404 224.082 236.992 224.406C237.592 224.73 238.06 225.21 238.396 225.846C238.744 226.482 238.918 227.25 238.918 228.15V234H236.884V228.456C236.884 227.568 236.662 226.89 236.218 226.422C235.774 225.942 235.168 225.702 234.4 225.702C233.632 225.702 233.02 225.942 232.564 226.422C232.12 226.89 231.898 227.568 231.898 228.456V234H229.846V220.68H231.898V225.234C232.246 224.814 232.684 224.49 233.212 224.262C233.752 224.034 234.34 223.92 234.976 223.92ZM242.58 222.768C242.208 222.768 241.896 222.642 241.644 222.39C241.392 222.138 241.266 221.826 241.266 221.454C241.266 221.082 241.392 220.77 241.644 220.518C241.896 220.266 242.208 220.14 242.58 220.14C242.94 220.14 243.246 220.266 243.498 220.518C243.75 220.77 243.876 221.082 243.876 221.454C243.876 221.826 243.75 222.138 243.498 222.39C243.246 222.642 242.94 222.768 242.58 222.768ZM243.588 224.082V234H241.536V224.082H243.588ZM249.882 234.162C249.102 234.162 248.4 234.024 247.776 233.748C247.164 233.46 246.678 233.076 246.318 232.596C245.958 232.104 245.766 231.558 245.742 230.958H247.866C247.902 231.378 248.1 231.732 248.46 232.02C248.832 232.296 249.294 232.434 249.846 232.434C250.422 232.434 250.866 232.326 251.178 232.11C251.502 231.882 251.664 231.594 251.664 231.246C251.664 230.874 251.484 230.598 251.124 230.418C250.776 230.238 250.218 230.04 249.45 229.824C248.706 229.62 248.1 229.422 247.632 229.23C247.164 229.038 246.756 228.744 246.408 228.348C246.072 227.952 245.904 227.43 245.904 226.782C245.904 226.254 246.06 225.774 246.372 225.342C246.684 224.898 247.128 224.55 247.704 224.298C248.292 224.046 248.964 223.92 249.72 223.92C250.848 223.92 251.754 224.208 252.438 224.784C253.134 225.348 253.506 226.122 253.554 227.106H251.502C251.466 226.662 251.286 226.308 250.962 226.044C250.638 225.78 250.2 225.648 249.648 225.648C249.108 225.648 248.694 225.75 248.406 225.954C248.118 226.158 247.974 226.428 247.974 226.764C247.974 227.028 248.07 227.25 248.262 227.43C248.454 227.61 248.688 227.754 248.964 227.862C249.24 227.958 249.648 228.084 250.188 228.24C250.908 228.432 251.496 228.63 251.952 228.834C252.42 229.026 252.822 229.314 253.158 229.698C253.494 230.082 253.668 230.592 253.68 231.228C253.68 231.792 253.524 232.296 253.212 232.74C252.9 233.184 252.456 233.532 251.88 233.784C251.316 234.036 250.65 234.162 249.882 234.162ZM269.501 224.082L263.417 238.662H261.293L263.309 233.838L259.403 224.082H261.689L264.479 231.642L267.377 224.082H269.501ZM280.139 228.798C280.139 229.17 280.115 229.506 280.067 229.806H272.489C272.549 230.598 272.843 231.234 273.371 231.714C273.899 232.194 274.547 232.434 275.315 232.434C276.419 232.434 277.199 231.972 277.655 231.048H279.869C279.569 231.96 279.023 232.71 278.231 233.298C277.451 233.874 276.479 234.162 275.315 234.162C274.367 234.162 273.515 233.952 272.759 233.532C272.015 233.1 271.427 232.5 270.995 231.732C270.575 230.952 270.365 230.052 270.365 229.032C270.365 228.012 270.569 227.118 270.977 226.35C271.397 225.57 271.979 224.97 272.723 224.55C273.479 224.13 274.343 223.92 275.315 223.92C276.251 223.92 277.085 224.124 277.817 224.532C278.549 224.94 279.119 225.516 279.527 226.26C279.935 226.992 280.139 227.838 280.139 228.798ZM277.997 228.15C277.985 227.394 277.715 226.788 277.187 226.332C276.659 225.876 276.005 225.648 275.225 225.648C274.517 225.648 273.911 225.876 273.407 226.332C272.903 226.776 272.603 227.382 272.507 228.15H277.997ZM284.553 225.756V231.246C284.553 231.618 284.637 231.888 284.805 232.056C284.985 232.212 285.285 232.29 285.705 232.29H286.965V234H285.345C284.421 234 283.713 233.784 283.221 233.352C282.729 232.92 282.483 232.218 282.483 231.246V225.756H281.313V224.082H282.483V221.616H284.553V224.082H286.965V225.756H284.553ZM296.898 221.31C298.122 221.31 299.1 221.646 299.832 222.318C300.576 222.99 300.948 223.908 300.948 225.072C300.948 226.284 300.564 227.196 299.796 227.808C299.028 228.42 298.008 228.726 296.736 228.726L296.664 230.148H294.882L294.792 227.322H295.386C296.55 227.322 297.438 227.166 298.05 226.854C298.674 226.542 298.986 225.948 298.986 225.072C298.986 224.436 298.8 223.938 298.428 223.578C298.068 223.218 297.564 223.038 296.916 223.038C296.268 223.038 295.758 223.212 295.386 223.56C295.014 223.908 294.828 224.394 294.828 225.018H292.902C292.902 224.298 293.064 223.656 293.388 223.092C293.712 222.528 294.174 222.09 294.774 221.778C295.386 221.466 296.094 221.31 296.898 221.31ZM295.746 234.126C295.374 234.126 295.062 234 294.81 233.748C294.558 233.496 294.432 233.184 294.432 232.812C294.432 232.44 294.558 232.128 294.81 231.876C295.062 231.624 295.374 231.498 295.746 231.498C296.106 231.498 296.412 231.624 296.664 231.876C296.916 232.128 297.042 232.44 297.042 232.812C297.042 233.184 296.916 233.496 296.664 233.748C296.412 234 296.106 234.126 295.746 234.126Z" fill="white" fill-opacity="0.7"/>
<g clip-path="url(#clip0_754_8)">
<path d="M725.873 33.325C729.463 29.0053 731.96 23.8844 733.153 18.3955C734.345 12.9066 734.198 7.21118 732.724 1.79107C731.25 -3.62904 728.492 -8.6144 724.684 -12.7433C720.876 -16.8722 716.129 -20.0231 710.846 -21.9295C705.562 -23.8359 699.897 -24.4418 694.33 -23.6958C688.763 -22.9498 683.457 -20.8739 678.862 -17.6437C674.267 -14.4135 670.517 -10.1241 667.93 -5.13829C665.343 -0.152473 663.995 5.38306 664 11C664.002 19.1655 666.879 27.0695 672.127 33.325L672.077 33.3675C672.252 33.5775 672.452 33.7575 672.632 33.965C672.857 34.2225 673.1 34.465 673.332 34.715C674.032 35.475 674.752 36.205 675.507 36.89C675.737 37.1 675.975 37.295 676.207 37.495C677.007 38.185 677.83 38.84 678.682 39.45C678.792 39.525 678.892 39.6225 679.003 39.7V39.67C684.858 43.7905 691.843 46.0018 699.003 46.0018C706.162 46.0018 713.147 43.7905 719.003 39.67V39.7C719.113 39.6225 719.21 39.525 719.323 39.45C720.173 38.8375 720.998 38.185 721.798 37.495C722.03 37.295 722.268 37.0975 722.498 36.89C723.253 36.2025 723.973 35.475 724.673 34.715C724.905 34.465 725.145 34.2225 725.373 33.965C725.55 33.7575 725.753 33.5775 725.928 33.365L725.873 33.325ZM699 -8.99997C701.225 -8.99997 703.4 -8.34017 705.25 -7.10401C707.1 -5.86784 708.542 -4.11083 709.394 -2.05516C710.245 0.000507355 710.468 2.26251 710.034 4.4448C709.6 6.62708 708.528 8.63164 706.955 10.205C705.382 11.7783 703.377 12.8498 701.195 13.2839C699.012 13.7179 696.75 13.4952 694.695 12.6437C692.639 11.7922 690.882 10.3502 689.646 8.50019C688.41 6.65014 687.75 4.47507 687.75 2.25003C687.75 -0.733658 688.935 -3.59514 691.045 -5.70492C693.155 -7.81471 696.016 -8.99997 699 -8.99997ZM679.017 33.325C679.061 30.0425 680.395 26.9089 682.731 24.6024C685.067 22.2958 688.217 21.0017 691.5 21H706.5C709.783 21.0017 712.933 22.2958 715.269 24.6024C717.605 26.9089 718.939 30.0425 718.983 33.325C713.5 38.2659 706.381 41.0002 699 41.0002C691.619 41.0002 684.5 38.2659 679.017 33.325Z" fill="white"/>
</g>
<g filter="url(#filter0_f_754_8)">
<path d="M663.795 152.953C666.039 150.253 667.6 147.053 668.345 143.622C669.091 140.192 668.999 136.632 668.078 133.244C667.156 129.857 665.433 126.741 663.053 124.16C660.672 121.58 657.706 119.611 654.404 118.419C651.101 117.228 647.561 116.849 644.081 117.315C640.602 117.781 637.286 119.079 634.414 121.098C631.542 123.117 629.198 125.797 627.581 128.914C625.964 132.03 625.122 135.489 625.125 139C625.126 144.103 626.925 149.043 630.205 152.953L630.173 152.98C630.283 153.111 630.408 153.223 630.52 153.353C630.661 153.514 630.812 153.666 630.958 153.822C631.395 154.297 631.845 154.753 632.317 155.181C632.461 155.312 632.609 155.434 632.755 155.559C633.255 155.991 633.769 156.4 634.302 156.781C634.37 156.828 634.433 156.889 634.502 156.937V156.919C638.161 159.494 642.527 160.876 647.002 160.876C651.476 160.876 655.842 159.494 659.502 156.919V156.937C659.57 156.889 659.631 156.828 659.702 156.781C660.233 156.398 660.748 155.991 661.248 155.559C661.394 155.434 661.542 155.311 661.686 155.181C662.158 154.752 662.608 154.297 663.045 153.822C663.191 153.666 663.341 153.514 663.483 153.353C663.594 153.223 663.72 153.111 663.83 152.978L663.795 152.953ZM647 126.5C648.391 126.5 649.75 126.912 650.906 127.685C652.063 128.458 652.964 129.556 653.496 130.84C654.028 132.125 654.167 133.539 653.896 134.903C653.625 136.267 652.955 137.52 651.972 138.503C650.989 139.486 649.736 140.156 648.372 140.427C647.008 140.699 645.594 140.559 644.309 140.027C643.024 139.495 641.926 138.594 641.154 137.438C640.381 136.281 639.969 134.922 639.969 133.531C639.969 131.666 640.71 129.878 642.028 128.559C643.347 127.241 645.135 126.5 647 126.5ZM634.511 152.953C634.538 150.902 635.372 148.943 636.832 147.501C638.292 146.06 640.261 145.251 642.312 145.25H651.687C653.739 145.251 655.708 146.06 657.168 147.501C658.628 148.943 659.462 150.902 659.489 152.953C656.062 156.041 651.613 157.75 647 157.75C642.387 157.75 637.938 156.041 634.511 152.953Z" fill="white"/>
</g>
<path d="M568.309 207.488C573.694 201.008 577.44 193.327 579.229 185.093C581.018 176.86 580.797 168.317 578.586 160.187C576.375 152.056 572.239 144.578 566.526 138.385C560.814 132.192 553.694 127.465 545.768 124.606C537.843 121.746 529.346 120.837 520.995 121.956C512.644 123.075 504.686 126.189 497.793 131.034C490.9 135.88 485.275 142.314 481.395 149.793C477.515 157.271 475.493 165.575 475.5 174C475.503 186.248 479.819 198.104 487.691 207.488L487.616 207.551C487.879 207.866 488.179 208.136 488.449 208.448C488.786 208.834 489.15 209.198 489.499 209.573C490.549 210.713 491.629 211.808 492.761 212.835C493.106 213.15 493.463 213.443 493.811 213.743C495.011 214.778 496.245 215.76 497.524 216.675C497.689 216.788 497.839 216.934 498.004 217.05V217.005C506.787 223.186 517.264 226.503 528.004 226.503C538.743 226.503 549.221 223.186 558.004 217.005V217.05C558.169 216.934 558.315 216.788 558.484 216.675C559.759 215.756 560.996 214.778 562.196 213.743C562.545 213.443 562.901 213.146 563.246 212.835C564.379 211.804 565.459 210.713 566.509 209.573C566.858 209.198 567.218 208.834 567.559 208.448C567.825 208.136 568.129 207.866 568.391 207.548L568.309 207.488ZM528 144C531.338 144 534.6 144.99 537.375 146.844C540.15 148.698 542.313 151.334 543.59 154.417C544.868 157.501 545.202 160.894 544.551 164.167C543.9 167.441 542.292 170.447 539.932 172.807C537.572 175.167 534.566 176.775 531.292 177.426C528.019 178.077 524.626 177.743 521.542 176.466C518.459 175.188 515.823 173.025 513.969 170.25C512.115 167.475 511.125 164.213 511.125 160.875C511.125 156.4 512.903 152.107 516.068 148.943C519.232 145.778 523.524 144 528 144ZM498.026 207.488C498.091 202.564 500.092 197.863 503.596 194.404C507.1 190.944 511.826 189.003 516.75 189H539.25C544.174 189.003 548.9 190.944 552.404 194.404C555.908 197.863 557.909 202.564 557.974 207.488C549.749 214.899 539.071 219 528 219C516.929 219 506.251 214.899 498.026 207.488Z" fill="white"/>
<g filter="url(#filter1_f_754_8)">
<path d="M123 67.1624C123.02 65.5211 123.62 63.9544 124.672 62.8011C125.725 61.6478 127.143 61.0008 128.622 60.9999H135.378C136.857 61.0008 138.275 61.6478 139.328 62.8011C140.38 63.9544 140.98 65.5211 141 67.1624C138.531 69.6328 135.324 71 132 71C128.676 71 125.469 69.6328 123 67.1624ZM137.067 51.625C137.067 52.7375 136.77 53.825 136.213 54.75C135.656 55.6751 134.865 56.396 133.939 56.8218C133.013 57.2475 131.994 57.3589 131.011 57.1419C130.029 56.9248 129.126 56.3891 128.417 55.6024C127.709 54.8158 127.226 53.8135 127.03 52.7224C126.835 51.6312 126.935 50.5002 127.319 49.4724C127.702 48.4446 128.352 47.5661 129.185 46.948C130.018 46.3299 130.998 46 132 46C133.344 46 134.633 46.5926 135.583 47.6475C136.533 48.7024 137.067 50.1331 137.067 51.625Z" fill="white"/>
</g>
<path d="M44 130.711C44.0434 127.166 45.3786 123.781 47.7166 121.29C50.0547 118.799 53.2077 117.402 56.4934 117.4H71.5066C74.7923 117.402 77.9453 118.799 80.2834 121.29C82.6214 123.781 83.9566 127.166 84 130.711C78.5123 136.047 71.3871 139 64 139C56.6129 139 49.4877 136.047 44 130.711ZM75.2599 97.15C75.2599 99.553 74.5995 101.902 73.3622 103.9C72.125 105.898 70.3664 107.455 68.309 108.375C66.2515 109.295 63.9875 109.535 61.8033 109.066C59.6191 108.598 57.6128 107.44 56.0381 105.741C54.4634 104.042 53.391 101.877 52.9565 99.5203C52.522 97.1634 52.745 94.7205 53.5973 92.5004C54.4495 90.2803 55.8927 88.3827 57.7444 87.0476C59.596 85.7126 61.773 85 64 85C66.9863 85 69.8503 86.2801 71.9619 88.5586C74.0735 90.8372 75.2599 93.9276 75.2599 97.15Z" fill="white"/>
<path d="M256 138.781C256.026 136.549 256.827 134.418 258.23 132.85C259.633 131.281 261.525 130.401 263.496 130.4H272.504C274.475 130.401 276.367 131.281 277.77 132.85C279.173 134.418 279.974 136.549 280 138.781C276.707 142.141 272.432 144 268 144C263.568 144 259.293 142.141 256 138.781ZM274.756 117.65C274.756 119.163 274.36 120.642 273.617 121.9C272.875 123.158 271.82 124.139 270.585 124.718C269.351 125.297 267.993 125.448 266.682 125.153C265.371 124.858 264.168 124.129 263.223 123.059C262.278 121.989 261.635 120.626 261.374 119.142C261.113 117.658 261.247 116.12 261.758 114.722C262.27 113.325 263.136 112.13 264.247 111.289C265.358 110.449 266.664 110 268 110C269.792 110 271.51 110.806 272.777 112.241C274.044 113.675 274.756 115.621 274.756 117.65Z" fill="white"/>
<path d="M83 92.5L116.5 65" stroke="white" stroke-opacity="0.9"/>
<path d="M151.5 59L253.5 118.5" stroke="white" stroke-opacity="0.9"/>
<path d="M92.5 130L244 140.5" stroke="white" stroke-opacity="0.9"/>
<path d="M145.5 36.5L179.5 1" stroke="white"/>
<path d="M115.5 43.5L11 3" stroke="white"/>
<defs>
<filter id="filter0_f_754_8" x="618" y="110" width="58" height="58" filterUnits="userSpaceOnUse" color-interpolation-filters="sRGB">
<feFlood flood-opacity="0" result="BackgroundImageFix"/>
<feBlend mode="normal" in="SourceGraphic" in2="BackgroundImageFix" result="shape"/>
<feGaussianBlur stdDeviation="2" result="effect1_foregroundBlur_754_8"/>
</filter>
<filter id="filter1_f_754_8" x="119" y="42" width="26" height="33" filterUnits="userSpaceOnUse" color-interpolation-filters="sRGB">
<feFlood flood-opacity="0" result="BackgroundImageFix"/>
<feBlend mode="normal" in="SourceGraphic" in2="BackgroundImageFix" result="shape"/>
<feGaussianBlur stdDeviation="2" result="effect1_foregroundBlur_754_8"/>
</filter>
<linearGradient id="paint0_linear_754_8" x1="-37.5" y1="48.5" x2="845.5" y2="200.5" gradientUnits="userSpaceOnUse">
<stop stop-color="#6600FF"/>
<stop offset="1" stop-color="#6600FF" stop-opacity="0.7"/>
</linearGradient>
<clipPath id="clip0_754_8">
<rect width="80" height="48" fill="white" transform="translate(659 3)"/>
</clipPath>
</defs>
</svg>
